<svg width="564" height="87" viewBox="0 0 564 87" fill="none" xmlns="http://www.w3.org/2000/svg">
<g clip-path="url(#clip0_0_5)">
<path fill-rule="evenodd" clip-rule="evenodd" d="M49.2304 38.829L22.9336 38.8046C20.3104 29.8334 20.3999 22.1717 20.3999 22.1717C20.3999 22.1717 23.8816 21.8819 26.9826 19.4019C30.0837 16.9227 29.9924 13.4182 29.9924 13.4182H49.319L49.2304 38.829Z" fill="black"/>
<path fill-rule="evenodd" clip-rule="evenodd" d="M75.5096 38.876C74.6367 41.7693 73.4783 44.8002 71.9526 47.7583C65.684 59.9153 51.0097 68.0117 49.3279 68.8436L49.2489 68.8822L49.1699 68.8436C49.1699 68.8436 49.2346 38.6438 49.2651 38.7148C49.3402 38.8904 75.5581 38.7148 75.5096 38.876Z" fill="black"/>
<path fill-rule="evenodd" clip-rule="evenodd" d="M23.8642 16.2968C27.4993 13.4099 26.6311 9.73438 26.6311 9.73438H72.1414C72.1414 9.73438 71.2743 13.4108 74.9083 16.2968C78.5424 19.1828 82.1821 18.4141 82.1821 18.4141C82.1821 18.4141 83.5575 34.3728 75.9943 48.9425C68.8633 62.6777 51.4488 71.5256 49.4786 72.4934L49.3863 72.5384L49.2939 72.4934C47.3227 71.5256 29.9083 62.6777 22.7782 48.9425C15.215 34.3728 16.5905 18.4141 16.5905 18.4141C16.5905 18.4141 20.2302 19.1828 23.8642 16.2968ZM28.9185 12.6694C28.9277 12.741 29.3406 15.9715 26.3561 18.3421C23.2827 20.7833 19.6841 21.0701 19.6339 21.0742L19.206 21.1084L19.2032 21.5099C19.2022 21.5504 19.0262 35.5448 25.5604 48.1322C27.8781 52.5973 31.2894 56.5311 34.8082 59.7889C41.2368 65.7392 48.0433 69.447 49.1788 70.0043C49.1835 70.0043 49.4577 70.1394 49.4796 70.1502C49.4877 70.1464 49.5315 70.1249 49.5832 70.0996C49.6693 70.0574 49.7774 70.0043 49.7803 70.0043C50.9149 69.447 57.7223 65.7392 64.15 59.7889C67.6688 56.5311 71.0801 52.5973 73.3978 48.1322C79.915 35.5785 79.5705 21.4522 79.5675 21.3296L79.5589 20.9176L79.1201 20.8977C79.1116 20.8977 75.8744 20.7915 72.7905 18.3421C69.7647 15.9385 70.0407 12.6547 70.0417 12.6456L70.0769 12.1776H28.8546L28.9184 12.6681L28.9185 12.6694Z" fill="url(#paint0_linear_0_5)"/>
<path fill-rule="evenodd" clip-rule="evenodd" d="M22.8471 38.876C23.7199 41.7693 25.0113 44.9318 26.5371 47.8899C32.8058 60.0471 47.3469 68.0117 49.0287 68.8436L49.1078 68.8822L49.1868 68.8436C49.1868 68.8436 49.5057 38.6438 49.4752 38.7148C49.4 38.8904 22.7976 38.7148 22.8462 38.876H22.8471Z" fill="#343434"/>
<path fill-rule="evenodd" clip-rule="evenodd" d="M49.5663 38.829L75.8631 38.8046C78.4863 29.8334 78.3969 22.1717 78.3969 22.1717C78.3969 22.1717 74.9151 21.8819 71.8141 19.4019C68.7131 16.9227 68.8045 13.4182 68.8045 13.4182H49.4778L49.5663 38.829Z" fill="#343434"/>
<path d="M39.569 23.0149C39.1024 22.8711 38.6736 22.7993 38.2825 22.7993C37.6959 22.7993 37.2272 22.9307 36.8761 23.1937C36.5295 23.4565 36.3562 23.8221 36.3562 24.2904C36.3562 24.5574 36.4162 24.7916 36.5362 24.9928C36.6606 25.1941 36.825 25.3708 37.0295 25.5227C37.2382 25.6747 37.4738 25.8103 37.736 25.9294C37.9982 26.0485 38.2692 26.1655 38.5492 26.2806C38.8558 26.4038 39.1535 26.5353 39.4424 26.675C39.7313 26.8105 39.9912 26.9707 40.2222 27.1555C40.4578 27.3404 40.6444 27.5622 40.7821 27.821C40.9244 28.0798 40.9955 28.3817 40.9955 28.7268C40.9955 29.5442 40.6844 30.1686 40.0623 30.5999C39.4446 31.0312 38.5869 31.2469 37.4893 31.2469C36.7828 31.2469 36.0007 31.136 35.143 30.9141L35.103 30.8649L35.4296 28.7699L35.7296 28.7268L36.1962 30.4766C36.6673 30.6491 37.1494 30.7354 37.6426 30.7354C38.3048 30.7354 38.8202 30.5999 39.1891 30.3288C39.5623 30.0576 39.749 29.6716 39.749 29.1704C39.749 28.9075 39.689 28.6775 39.569 28.4803C39.4491 28.279 39.2868 28.1065 39.0824 27.9628C38.8825 27.819 38.6536 27.6895 38.3959 27.5745C38.1381 27.4554 37.8716 27.3384 37.596 27.2233C37.2849 27.1 36.9827 26.9666 36.6895 26.8228C36.3961 26.679 36.1296 26.5127 35.8896 26.3237C35.654 26.1307 35.4652 25.8965 35.323 25.6213C35.1808 25.3419 35.1097 25.0175 35.1097 24.6478C35.1097 23.9042 35.4097 23.3292 36.0095 22.9226C36.6139 22.5159 37.4138 22.3125 38.4092 22.3125C39.1113 22.3125 39.8468 22.3885 40.6155 22.5405L40.6622 22.5836L40.269 24.506L40.0023 24.5492L39.569 23.0149Z" fill="#E8E8E8"/>
<path d="M39.569 23.0149C39.1024 22.8711 38.6736 22.7993 38.2825 22.7993C37.6959 22.7993 37.2272 22.9307 36.8761 23.1937C36.5295 23.4565 36.3562 23.8221 36.3562 24.2904C36.3562 24.5574 36.4162 24.7916 36.5362 24.9928C36.6606 25.1941 36.825 25.3708 37.0295 25.5227C37.2382 25.6747 37.4738 25.8103 37.736 25.9294C37.9982 26.0485 38.2692 26.1655 38.5492 26.2806C38.8558 26.4038 39.1535 26.5353 39.4424 26.675C39.7313 26.8105 39.9912 26.9707 40.2222 27.1555C40.4578 27.3404 40.6444 27.5622 40.7821 27.821C40.9244 28.0798 40.9955 28.3817 40.9955 28.7268C40.9955 29.5442 40.6844 30.1686 40.0623 30.5999C39.4446 31.0312 38.5869 31.2469 37.4893 31.2469C36.7828 31.2469 36.0007 31.136 35.143 30.9141L35.103 30.8649L35.4296 28.7699L35.7296 28.7268L36.1962 30.4766C36.6673 30.6491 37.1494 30.7354 37.6426 30.7354C38.3048 30.7354 38.8202 30.5999 39.1891 30.3288C39.5623 30.0576 39.749 29.6716 39.749 29.1704C39.749 28.9075 39.689 28.6775 39.569 28.4803C39.4491 28.279 39.2868 28.1065 39.0824 27.9628C38.8825 27.819 38.6536 27.6895 38.3959 27.5745C38.1381 27.4554 37.8716 27.3384 37.596 27.2233C37.2849 27.1 36.9827 26.9666 36.6895 26.8228C36.3961 26.679 36.1296 26.5127 35.8896 26.3237C35.654 26.1307 35.4652 25.8965 35.323 25.6213C35.1808 25.3419 35.1097 25.0175 35.1097 24.6478C35.1097 23.9042 35.4097 23.3292 36.0095 22.9226C36.6139 22.5159 37.4138 22.3125 38.4092 22.3125C39.1113 22.3125 39.8468 22.3885 40.6155 22.5405L40.6622 22.5836L40.269 24.506L40.0023 24.5492L39.569 23.0149Z" fill="url(#paint1_linear_0_5)"/>
<path d="M62.6318 21.7577L65.5914 29.2933C65.7025 29.5767 65.8025 29.7698 65.8913 29.8725C65.9847 29.9711 66.1157 30.045 66.2846 30.0943L66.9111 30.2668L66.9245 30.5318C66.3423 30.5195 65.8025 30.5133 65.3047 30.5133C64.7981 30.5133 64.2004 30.5195 63.5116 30.5318L63.485 30.2668L64.1183 30.0943C64.2071 30.0656 64.2694 30.0347 64.3048 30.0019C64.3449 29.965 64.3649 29.9095 64.3649 29.8355C64.3649 29.7533 64.3404 29.6466 64.2916 29.5151C64.2471 29.3796 64.1827 29.2008 64.0982 28.979L63.4717 27.3278H60.2588L59.5589 28.9729C59.4656 29.203 59.3923 29.3857 59.339 29.5213C59.2856 29.6569 59.259 29.7636 59.259 29.8417C59.259 29.9115 59.2789 29.965 59.319 30.0019C59.3634 30.0347 59.4278 30.0635 59.5122 30.0882L60.1322 30.2545L60.1455 30.5318C59.5145 30.5195 58.999 30.5133 58.5991 30.5133C58.1992 30.5133 57.7525 30.5195 57.2592 30.5318L57.226 30.2668L57.8991 30.0759C58.068 30.0266 58.1925 29.9505 58.2725 29.8478C58.3525 29.7452 58.4413 29.585 58.539 29.3672L61.9452 21.8501L62.6318 21.7577ZM60.5054 26.767H63.2517L61.9519 23.372L60.5054 26.767Z" fill="#E8E8E8"/>
<path d="M62.6318 21.7577L65.5914 29.2933C65.7025 29.5767 65.8025 29.7698 65.8913 29.8725C65.9847 29.9711 66.1157 30.045 66.2846 30.0943L66.9111 30.2668L66.9245 30.5318C66.3423 30.5195 65.8025 30.5133 65.3047 30.5133C64.7981 30.5133 64.2004 30.5195 63.5116 30.5318L63.485 30.2668L64.1183 30.0943C64.2071 30.0656 64.2694 30.0347 64.3048 30.0019C64.3449 29.965 64.3649 29.9095 64.3649 29.8355C64.3649 29.7533 64.3404 29.6466 64.2916 29.5151C64.2471 29.3796 64.1827 29.2008 64.0982 28.979L63.4717 27.3278H60.2588L59.5589 28.9729C59.4656 29.203 59.3923 29.3857 59.339 29.5213C59.2856 29.6569 59.259 29.7636 59.259 29.8417C59.259 29.9115 59.2789 29.965 59.319 30.0019C59.3634 30.0347 59.4278 30.0635 59.5122 30.0882L60.1322 30.2545L60.1455 30.5318C59.5145 30.5195 58.999 30.5133 58.5991 30.5133C58.1992 30.5133 57.7525 30.5195 57.2592 30.5318L57.226 30.2668L57.8991 30.0759C58.068 30.0266 58.1925 29.9505 58.2725 29.8478C58.3525 29.7452 58.4413 29.585 58.539 29.3672L61.9452 21.8501L62.6318 21.7577ZM60.5054 26.767H63.2517L61.9519 23.372L60.5054 26.767Z" fill="url(#paint2_linear_0_5)"/>
<path d="M61.4638 51.7219C61.4638 51.9684 61.4638 52.1922 61.4638 52.3936C61.4682 52.5948 61.4727 52.7776 61.4771 52.9419C61.4816 53.0446 61.5594 53.1144 61.7104 53.1514L62.4636 53.3671L62.477 53.632C61.9037 53.6196 61.3527 53.6135 60.8238 53.6135C60.2861 53.6135 59.7351 53.6196 59.1708 53.632L59.1441 53.3671L59.964 53.1391C60.0751 53.1103 60.1351 53.0467 60.144 52.9481C60.1484 52.7837 60.1507 52.6009 60.1507 52.3997C60.1551 52.1943 60.1573 51.9684 60.1573 51.7219V46.7248C60.1573 46.5153 60.1551 46.3264 60.1507 46.158C60.1507 45.9896 60.1484 45.8376 60.144 45.702C60.1395 45.5952 60.0862 45.5254 59.984 45.4925L59.1575 45.2523L59.1441 44.9873C59.7174 45.0037 60.2684 45.0119 60.7972 45.0119C61.3305 45.0119 61.8815 45.0037 62.4503 44.9873L62.477 45.2523L61.6504 45.4802C61.5438 45.5048 61.486 45.5685 61.4771 45.6713C61.4727 45.815 61.4682 45.9731 61.4638 46.1456C61.4638 46.3141 61.4638 46.4989 61.4638 46.7002V51.7219Z" fill="#E8E8E8"/>
<path d="M61.4638 51.7219C61.4638 51.9684 61.4638 52.1922 61.4638 52.3936C61.4682 52.5948 61.4727 52.7776 61.4771 52.9419C61.4816 53.0446 61.5594 53.1144 61.7104 53.1514L62.4636 53.3671L62.477 53.632C61.9037 53.6196 61.3527 53.6135 60.8238 53.6135C60.2861 53.6135 59.7351 53.6196 59.1708 53.632L59.1441 53.3671L59.964 53.1391C60.0751 53.1103 60.1351 53.0467 60.144 52.9481C60.1484 52.7837 60.1507 52.6009 60.1507 52.3997C60.1551 52.1943 60.1573 51.9684 60.1573 51.7219V46.7248C60.1573 46.5153 60.1551 46.3264 60.1507 46.158C60.1507 45.9896 60.1484 45.8376 60.144 45.702C60.1395 45.5952 60.0862 45.5254 59.984 45.4925L59.1575 45.2523L59.1441 44.9873C59.7174 45.0037 60.2684 45.0119 60.7972 45.0119C61.3305 45.0119 61.8815 45.0037 62.4503 44.9873L62.477 45.2523L61.6504 45.4802C61.5438 45.5048 61.486 45.5685 61.4771 45.6713C61.4727 45.815 61.4682 45.9731 61.4638 46.1456C61.4638 46.3141 61.4638 46.4989 61.4638 46.7002V51.7219Z" fill="url(#paint3_linear_0_5)"/>
<path d="M37.2966 51.7219C37.2966 52.2066 37.3009 52.6051 37.3099 52.9172C37.3143 53.0158 37.3721 53.0795 37.4832 53.1083L38.403 53.3671L38.4164 53.632C37.772 53.6196 37.1854 53.6135 36.6567 53.6135C36.1278 53.6135 35.5768 53.6196 35.0036 53.632L34.9769 53.3671L35.7967 53.1391C35.9123 53.1062 35.9723 53.0425 35.9767 52.9481C35.9856 52.6154 35.9901 52.2066 35.9901 51.7219V46.7248C35.9901 46.5153 35.9879 46.3264 35.9834 46.158C35.9834 45.9896 35.9812 45.8376 35.9767 45.702C35.9723 45.5952 35.919 45.5254 35.8168 45.4925L34.9902 45.2523L34.9769 44.9873C35.5501 45.0037 36.1011 45.0119 36.63 45.0119H38.2497C39.2451 45.0119 40.2961 45.0037 41.4026 44.9873L41.4426 45.0366L41.056 46.9405L40.7894 46.9836L40.3761 45.5603H37.2966V49.0786H37.9365C38.3986 49.0786 38.9141 49.0745 39.4829 49.0663C39.6028 49.0622 39.6784 49.0087 39.7095 48.9061L39.9828 48.0742L40.3028 48.0619C40.2894 48.637 40.2828 49.0622 40.2828 49.3374C40.2828 49.6044 40.2894 50.0234 40.3028 50.5943L39.9828 50.619L39.7028 49.7749C39.6673 49.6681 39.6006 49.6126 39.5029 49.6085C38.9207 49.6002 38.3964 49.5962 37.9298 49.5962H37.2966V51.7219Z" fill="#E8E8E8"/>
<path d="M37.2966 51.7219C37.2966 52.2066 37.3009 52.6051 37.3099 52.9172C37.3143 53.0158 37.3721 53.0795 37.4832 53.1083L38.403 53.3671L38.4164 53.632C37.772 53.6196 37.1854 53.6135 36.6567 53.6135C36.1278 53.6135 35.5768 53.6196 35.0036 53.632L34.9769 53.3671L35.7967 53.1391C35.9123 53.1062 35.9723 53.0425 35.9767 52.9481C35.9856 52.6154 35.9901 52.2066 35.9901 51.7219V46.7248C35.9901 46.5153 35.9879 46.3264 35.9834 46.158C35.9834 45.9896 35.9812 45.8376 35.9767 45.702C35.9723 45.5952 35.919 45.5254 35.8168 45.4925L34.9902 45.2523L34.9769 44.9873C35.5501 45.0037 36.1011 45.0119 36.63 45.0119H38.2497C39.2451 45.0119 40.2961 45.0037 41.4026 44.9873L41.4426 45.0366L41.056 46.9405L40.7894 46.9836L40.3761 45.5603H37.2966V49.0786H37.9365C38.3986 49.0786 38.9141 49.0745 39.4829 49.0663C39.6028 49.0622 39.6784 49.0087 39.7095 48.9061L39.9828 48.0742L40.3028 48.0619C40.2894 48.637 40.2828 49.0622 40.2828 49.3374C40.2828 49.6044 40.2894 50.0234 40.3028 50.5943L39.9828 50.619L39.7028 49.7749C39.6673 49.6681 39.6006 49.6126 39.5029 49.6085C38.9207 49.6002 38.3964 49.5962 37.9298 49.5962H37.2966V51.7219Z" fill="url(#paint4_linear_0_5)"/>
<path fill-rule="evenodd" clip-rule="evenodd" d="M31.0397 75.6536C34.3377 76.2468 36.644 78.3298 38.5791 80.0411C40.5227 81.7596 42.4768 82.0485 44.8896 82.928C45.7386 83.2377 46.1974 83.5438 47.0026 83.8156C45.5369 80.3048 36.9658 75.6409 31.0397 75.6526V75.6536Z" fill="url(#paint5_linear_0_5)"/>
<path fill-rule="evenodd" clip-rule="evenodd" d="M53.2494 78.3173L50.3073 81.0421C50.1541 81.1997 50.0855 81.2816 49.8695 81.4652C49.5239 81.7587 49.7847 81.6011 49.3231 81.8415L48.3218 80.7297L47.4271 80.0105C47.1263 79.7297 46.8769 79.5379 46.6028 79.2831C46.0146 78.7358 45.4949 78.3875 44.8962 77.8744C41.3288 74.8128 32.9985 73.5012 28.8447 74.9352C31.9372 75.2287 33.1127 75.2268 36.0358 75.9839C41.72 77.4557 44.5917 79.9916 47.6784 83.3881C48.1686 83.9273 48.7387 84.6591 49.3698 85.2425C49.6286 85.1164 49.4306 85.2487 49.6858 85.0363L52.9162 81.4985C56.3266 77.6826 62.9655 75.2179 69.811 74.9712C67.8988 73.8217 62.3326 74.4887 60.0044 75.0189C55.4947 76.046 55.1749 77.2001 53.2494 78.3173Z" fill="url(#paint6_linear_0_5)"/>
<path fill-rule="evenodd" clip-rule="evenodd" d="M51.8633 83.7828C52.6694 83.5353 53.231 83.1734 54.1505 82.8584C56.5557 82.0338 58.7602 81.508 60.3782 79.9075C61.9278 78.3744 65.3182 75.8999 67.87 75.6631C64.9241 75.5019 60.0404 77.395 58.1205 78.3772C55.9333 79.4952 52.6153 81.8934 51.8633 83.7828Z" fill="url(#paint7_linear_0_5)"/>
<path fill-rule="evenodd" clip-rule="evenodd" d="M26.7726 18.7853C29.9659 16.2485 29.4843 12.7566 29.4843 12.7566H69.4759C69.4759 12.7566 69.1818 16.2485 72.3751 18.7853C75.5684 21.322 78.954 21.4327 78.954 21.4327C78.954 21.4327 79.3158 35.4721 72.8605 47.9084C66.4043 60.3445 51.2923 68.6263 49.561 69.477L49.4801 69.5166L49.3992 69.477C47.6678 68.6263 32.5549 60.3445 26.0996 47.9084C19.6434 35.473 19.8186 21.6073 19.8186 21.6073C19.8186 21.6073 23.5793 21.322 26.7726 18.7853ZM27.3397 19.4031C30.4407 16.924 30.1676 13.4195 30.1676 13.4195L30.1685 13.4186H49.2047V38.4634H22.9715C20.406 29.7014 20.3923 22.3431 20.3923 22.3431C20.3923 22.3431 24.2387 21.8822 27.3397 19.4031ZM49.2047 38.9667H23.1212C23.9978 41.8667 25.1558 44.9063 26.6858 47.8736C32.8392 59.8072 47.0918 67.8279 49.2047 68.9056V38.9667ZM49.7368 68.8215V38.9667H75.623C74.7637 41.8744 73.6187 44.915 72.0932 47.8736C66.0796 59.5361 52.3296 67.4615 49.7368 68.8215ZM49.7368 38.4634V13.4186H68.6124C68.6124 13.4186 68.5211 16.923 71.622 19.4022C74.7231 21.8822 78.2048 22.1721 78.2048 22.1721C78.2048 22.1721 78.2914 29.6405 75.7692 38.4634H49.7368Z" fill="url(#paint8_linear_0_5)"/>
<path d="M49.3857 40.2309C50.1642 40.2309 50.7953 39.6312 50.7953 38.8914C50.7953 38.1517 50.1642 37.5519 49.3857 37.5519C48.6072 37.5519 47.9761 38.1517 47.9761 38.8914C47.9761 39.6312 48.6072 40.2309 49.3857 40.2309Z" fill="url(#paint9_linear_0_5)"/>
<path fill-rule="evenodd" clip-rule="evenodd" d="M17.1151 68.333C18.2839 70.0929 20.2123 71.8185 23.161 72.0706C25.3255 72.2561 31.3856 71.9068 33.8204 71.6944C33.7709 71.6637 33.7033 71.6278 33.6663 71.6097L29.6582 70.687C25.7595 70.0695 18.6504 70.2441 17.1151 68.333Z" fill="url(#paint10_linear_0_5)"/>
<path fill-rule="evenodd" clip-rule="evenodd" d="M22.0869 68.0294C19.9121 67.897 18.9421 67.4613 17.2203 67.2183C18.3139 69.5417 23.9592 69.4103 26.1331 69.5858C29.8252 69.8829 32.497 70.6534 35.658 71.2827C34.6128 70.035 30.1021 68.4543 27.5437 68.2283C25.8152 68.0762 23.8668 68.1383 22.086 68.0303L22.0869 68.0294Z" fill="url(#paint11_linear_0_5)"/>
<path fill-rule="evenodd" clip-rule="evenodd" d="M10.5838 59.9683C11.3033 61.8137 12.6616 63.6933 15.0849 64.2038C16.8648 64.5791 21.9713 64.7717 24.0339 64.7762C23.9977 64.7411 23.9463 64.7006 23.9169 64.679L20.7073 63.4106C17.5435 62.4537 11.587 61.9964 10.5828 59.9683H10.5838Z" fill="url(#paint12_linear_0_5)"/>
<path fill-rule="evenodd" clip-rule="evenodd" d="M14.7766 60.1088C12.9804 59.7847 12.2342 59.268 10.8342 58.8737C11.409 61.27 16.1386 61.6409 17.9271 62.0072C20.9643 62.6293 23.0822 63.6276 25.6282 64.5315C24.9382 63.2045 21.4041 61.2394 19.3015 60.7893C17.8814 60.4851 16.2471 60.3744 14.7766 60.1088Z" fill="url(#paint13_linear_0_5)"/>
<path fill-rule="evenodd" clip-rule="evenodd" d="M6.66477 52.0343C7.06168 53.9653 8.08298 56.0258 10.3892 56.898C12.0816 57.5382 17.09 58.504 19.125 58.8218C19.0955 58.7822 19.0518 58.7336 19.026 58.7083L16.0725 56.9692C13.1124 55.5451 7.3101 54.1885 6.66382 52.0343H6.66477Z" fill="url(#paint14_linear_0_5)"/>
<path fill-rule="evenodd" clip-rule="evenodd" d="M10.7792 52.8099C9.06114 52.2175 8.41295 51.5938 7.09753 50.9924C7.25839 53.4445 11.8633 54.5293 13.567 55.1621C16.4596 56.2369 18.3803 57.5441 20.74 58.8223C20.284 57.4072 17.1288 54.9317 15.1309 54.1683C13.7812 53.6525 12.1859 53.2951 10.7801 52.8099H10.7792Z" fill="url(#paint15_linear_0_5)"/>
<path fill-rule="evenodd" clip-rule="evenodd" d="M3.10078 42.5684C3.07033 44.5344 3.62429 46.7507 5.69163 48.0515C7.20979 49.0066 11.9023 50.9222 13.8259 51.628C13.8049 51.583 13.7726 51.5272 13.7535 51.4975L11.2398 49.2226C8.65178 47.2548 3.2664 44.8027 3.09984 42.5693L3.10078 42.5684Z" fill="url(#paint16_linear_0_5)"/>
<path fill-rule="evenodd" clip-rule="evenodd" d="M6.95924 44.1248C5.40683 43.212 4.90713 42.4755 3.74972 41.6321C3.37565 44.0635 7.64742 46.0178 9.17794 46.9676C11.7764 48.5807 13.3726 50.2326 15.4057 51.9411C15.2657 50.4684 12.7149 47.433 10.9245 46.2978C9.71474 45.5308 8.23183 44.8719 6.9602 44.1248H6.95924Z" fill="url(#paint17_linear_0_5)"/>
<path fill-rule="evenodd" clip-rule="evenodd" d="M0.975638 33.0129C0.656781 34.9565 0.879506 37.2231 2.7365 38.7832C4.0995 39.9282 8.46549 42.4416 10.2664 43.3931C10.2521 43.3463 10.2283 43.286 10.214 43.2545L8.05907 40.6718C5.78517 38.3826 0.811927 35.2473 0.975638 33.0138V33.0129Z" fill="url(#paint18_linear_0_5)"/>
<path fill-rule="evenodd" clip-rule="evenodd" d="M4.56908 35.0615C3.16515 33.9534 2.77872 33.1594 1.75647 32.1719C1.02928 34.5304 4.97265 37.0266 6.34898 38.168C8.68569 40.1062 10.024 41.9525 11.7858 43.9113C11.8638 42.4341 9.78314 39.0935 8.17647 37.7342C7.09141 36.816 5.71888 35.9689 4.57004 35.0615H4.56908Z" fill="url(#paint19_linear_0_5)"/>
<path fill-rule="evenodd" clip-rule="evenodd" d="M0.483105 23.4265C-0.173649 25.2926 -0.354495 27.563 1.20173 29.393C2.34391 30.737 6.20543 33.9039 7.81304 35.1263C7.80734 35.0777 7.79497 35.0156 7.78641 34.9814L6.11691 32.0945C4.278 29.4786 -0.071804 25.6023 0.483105 23.4265Z" fill="url(#paint20_linear_0_5)"/>
<path fill-rule="evenodd" clip-rule="evenodd" d="M3.66377 26.0131C2.47495 24.6998 2.23415 23.8553 1.40036 22.7202C0.267694 24.9311 3.71518 28.0143 4.87069 29.3573C6.83238 31.6375 7.82702 33.6684 9.21858 35.8775C9.55556 34.4336 8.09353 30.8112 6.74862 29.2178C5.84058 28.1412 4.63749 27.0888 3.66377 26.0131Z" fill="url(#paint21_linear_0_5)"/>
<path fill-rule="evenodd" clip-rule="evenodd" d="M2.62404 13.9423C1.58561 15.6463 0.928856 17.8365 2.06628 19.9241C2.90102 21.4571 6.01442 25.2902 7.33173 26.7925C7.33649 26.7439 7.33744 26.6801 7.33649 26.6449L6.31139 23.5005C5.0626 20.5902 1.61987 15.9695 2.62404 13.9414V13.9423Z" fill="url(#paint22_linear_0_5)"/>
<path fill-rule="evenodd" clip-rule="evenodd" d="M5.19378 17.0778C4.30669 15.5655 4.24958 14.6923 3.67183 13.423C2.09372 15.3746 4.82068 19.0483 5.66875 20.5823C7.10885 23.1874 7.65328 25.365 8.54989 27.7937C9.1857 26.4425 8.51847 22.6167 7.53811 20.801C6.87564 19.5749 5.91908 18.3164 5.19284 17.0778H5.19378Z" fill="url(#paint23_linear_0_5)"/>
<path fill-rule="evenodd" clip-rule="evenodd" d="M7.4268 6.53516C6.09235 8.04389 5.0444 10.0927 5.78301 12.336C6.32459 13.9825 8.68986 18.2683 9.71118 19.9625C9.72539 19.9157 9.73682 19.8526 9.74258 19.8185L9.30857 16.5534C8.61181 13.482 6.06665 8.36796 7.4268 6.53516Z" fill="url(#paint24_linear_0_5)"/>
<path fill-rule="evenodd" clip-rule="evenodd" d="M9.3837 10.0445C8.78691 8.40975 8.8897 7.54106 8.55371 6.19617C6.64246 7.86063 8.65556 11.925 9.20952 13.5741C10.1509 16.3756 10.2889 18.6099 10.7276 21.1484C11.6014 19.9214 11.6452 16.0443 11.0113 14.0963C10.584 12.7802 9.87197 11.3831 9.3837 10.0445Z" fill="url(#paint25_linear_0_5)"/>
<path fill-rule="evenodd" clip-rule="evenodd" d="M13.5097 12.1355C14.2949 10.9707 14.8137 7.60935 14.8299 6.31397C14.8527 4.49198 14.4596 1.97413 12.8577 0C12.7711 0.527514 13.4925 2.61777 13.1413 6.03041C12.9309 8.06936 12.1867 9.56903 13.5097 12.1355Z" fill="url(#paint26_linear_0_5)"/>
<path fill-rule="evenodd" clip-rule="evenodd" d="M12.7155 11.6833C11.3011 9.43458 13.754 3.74266 12.2358 0.494751C12.1549 0.716199 12.0482 2.01878 11.7095 3.22684C11.4249 4.24317 11.0488 4.93992 10.8575 5.99405C10.5529 7.67291 10.6891 9.96124 12.7145 11.6833H12.7155Z" fill="url(#paint27_linear_0_5)"/>
<path fill-rule="evenodd" clip-rule="evenodd" d="M81.4625 68.333C80.2937 70.0929 78.3653 71.8185 75.4166 72.0706C73.2522 72.2561 67.1919 71.9068 64.7571 71.6944C64.8057 71.6637 64.8742 71.6278 64.9114 71.6097L68.9195 70.687C72.8182 70.0695 79.9273 70.2441 81.4625 68.333Z" fill="url(#paint28_linear_0_5)"/>
<path fill-rule="evenodd" clip-rule="evenodd" d="M76.4908 68.0294C78.6657 67.897 79.6365 67.4613 81.3574 67.2183C80.2637 69.5417 74.6185 69.4103 72.4446 69.5858C68.7524 69.8829 66.0807 70.6534 62.9197 71.2827C63.9649 70.035 68.4755 68.4543 71.034 68.2283C72.7625 68.0762 74.7109 68.1383 76.4917 68.0303L76.4908 68.0294Z" fill="url(#paint29_linear_0_5)"/>
<path fill-rule="evenodd" clip-rule="evenodd" d="M87.9944 59.9683C87.2748 61.8137 85.9165 63.6933 83.4932 64.2038C81.7133 64.5791 76.6068 64.7717 74.5433 64.7762C74.5795 64.7411 74.6309 64.7006 74.6604 64.679L77.8708 63.4106C81.0347 62.4537 86.9903 61.9964 87.9944 59.9683Z" fill="url(#paint30_linear_0_5)"/>
<path fill-rule="evenodd" clip-rule="evenodd" d="M83.8016 60.1088C85.5978 59.7847 86.344 59.268 87.744 58.8737C87.1692 61.27 82.4396 61.6409 80.6511 62.0072C77.6139 62.6293 75.4961 63.6276 72.95 64.5315C73.64 63.2045 77.1751 61.2394 79.2767 60.7893C80.6968 60.4851 82.3311 60.3744 83.8016 60.1088Z" fill="url(#paint31_linear_0_5)"/>
<path fill-rule="evenodd" clip-rule="evenodd" d="M91.9125 52.0343C91.5155 53.9653 90.4943 56.0258 88.188 56.898C86.4957 57.5382 81.4872 58.504 79.4523 58.8218C79.4827 58.7822 79.5255 58.7336 79.5512 58.7083L82.5047 56.9692C85.4649 55.5451 91.2663 54.1885 91.9125 52.0343Z" fill="url(#paint32_linear_0_5)"/>
<path fill-rule="evenodd" clip-rule="evenodd" d="M87.7988 52.8099C89.5168 52.2175 90.165 51.5938 91.4804 50.9924C91.3195 53.4445 86.7147 54.5293 85.0109 55.1621C82.1183 56.2369 80.1975 57.5441 77.838 58.8223C78.2939 57.4072 81.4492 54.9317 83.4471 54.1683C84.7977 53.6525 86.392 53.2951 87.7978 52.8099H87.7988Z" fill="url(#paint33_linear_0_5)"/>
<path fill-rule="evenodd" clip-rule="evenodd" d="M95.4767 42.5684C95.5065 44.5344 94.9527 46.7507 92.8856 48.0515C91.3674 49.0066 86.675 50.9222 84.7513 51.628C84.7722 51.583 84.8047 51.5272 84.8236 51.4975L87.3374 49.2226C89.9254 47.2548 95.3104 44.8027 95.4777 42.5693L95.4767 42.5684Z" fill="url(#paint34_linear_0_5)"/>
<path fill-rule="evenodd" clip-rule="evenodd" d="M91.619 44.1248C93.1715 43.212 93.6714 42.4755 94.8282 41.6321C95.2027 44.0635 90.9308 46.0178 89.4002 46.9676C86.8018 48.5807 85.2056 50.2326 83.1725 51.9411C83.3125 50.4684 85.8633 47.433 87.6537 46.2978C88.8635 45.5308 90.3473 44.8719 91.619 44.1248Z" fill="url(#paint35_linear_0_5)"/>
<path fill-rule="evenodd" clip-rule="evenodd" d="M97.6017 33.0129C97.9204 34.9565 97.6974 37.2231 95.841 38.7832C94.4779 39.9282 90.1119 42.4416 88.311 43.3931C88.3253 43.3463 88.3491 43.286 88.3634 43.2545L90.5183 40.6718C92.7932 38.3826 97.7653 35.2473 97.6017 33.0138V33.0129Z" fill="url(#paint36_linear_0_5)"/>
<path fill-rule="evenodd" clip-rule="evenodd" d="M94.0078 35.0615C95.4117 33.9534 95.7983 33.1594 96.8203 32.1719C97.5479 34.5304 93.6045 37.0266 92.2282 38.168C89.8916 40.1062 88.5533 41.9525 86.7914 43.9113C86.7134 42.4341 88.7941 39.0935 90.4008 37.7342C91.4858 36.816 92.8593 35.9689 94.0078 35.0615Z" fill="url(#paint37_linear_0_5)"/>
<path fill-rule="evenodd" clip-rule="evenodd" d="M98.0942 23.4265C98.7511 25.2926 98.9323 27.563 97.3759 29.393C96.234 30.737 92.3722 33.9039 90.7646 35.1263C90.7703 35.0777 90.7826 35.0156 90.7913 34.9814L92.4607 32.0945C94.2995 29.4786 98.6498 25.6023 98.0942 23.4265Z" fill="url(#paint38_linear_0_5)"/>
<path fill-rule="evenodd" clip-rule="evenodd" d="M94.9137 26.0131C96.103 24.6998 96.3437 23.8553 97.1771 22.7202C98.3098 24.9311 94.8626 28.0143 93.7067 29.3573C91.7454 31.6375 90.7507 33.6684 89.3591 35.8775C89.0222 34.4336 90.4841 30.8112 91.8291 29.2178C92.7371 28.1412 93.9399 27.0888 94.9137 26.0131Z" fill="url(#paint39_linear_0_5)"/>
<path fill-rule="evenodd" clip-rule="evenodd" d="M95.9534 13.9423C96.9922 15.6463 97.6482 17.8365 96.5109 19.9241C95.6765 21.4571 92.563 25.2902 91.2457 26.7925C91.2409 26.7439 91.24 26.6801 91.2419 26.6449L92.267 23.5005C93.5162 20.5902 96.9588 15.9695 95.9543 13.9414L95.9534 13.9423Z" fill="url(#paint40_linear_0_5)"/>
<path fill-rule="evenodd" clip-rule="evenodd" d="M93.3834 17.0778C94.2698 15.5655 94.3274 14.6923 94.9053 13.423C96.4831 15.3746 93.756 19.0483 92.908 20.5823C91.4679 23.1874 90.9235 25.365 90.0269 27.7937C89.3911 26.4425 90.0583 22.6167 91.0387 20.801C91.7011 19.5749 92.6568 18.3164 93.3834 17.0778Z" fill="url(#paint41_linear_0_5)"/>
<path fill-rule="evenodd" clip-rule="evenodd" d="M91.1512 6.53516C92.4857 8.04389 93.5339 10.0927 92.7959 12.336C92.2544 13.9825 89.8892 18.2683 88.8678 19.9625C88.8535 19.9157 88.8421 19.8526 88.8364 19.8185L89.2704 16.5534C89.9672 13.482 92.5114 8.36796 91.1512 6.53516Z" fill="url(#paint42_linear_0_5)"/>
<path fill-rule="evenodd" clip-rule="evenodd" d="M89.1947 10.0445C89.7915 8.40975 89.6887 7.54106 90.0247 6.19617C91.9359 7.86063 89.9229 11.925 89.3689 13.5741C88.4276 16.3756 88.2895 18.6099 87.8507 21.1484C86.977 19.9214 86.9332 16.0443 87.5671 14.0963C87.9945 12.7802 88.7064 11.3831 89.1947 10.0445Z" fill="url(#paint43_linear_0_5)"/>
<path fill-rule="evenodd" clip-rule="evenodd" d="M85.068 12.1355C84.2827 10.9707 83.7639 7.60935 83.7478 6.31397C83.7249 4.49198 84.118 1.97413 85.7199 0C85.8066 0.527514 85.0851 2.61777 85.4363 6.03041C85.6467 8.06936 86.3909 9.56903 85.068 12.1355Z" fill="url(#paint44_linear_0_5)"/>
<path fill-rule="evenodd" clip-rule="evenodd" d="M85.8618 11.6833C87.2762 9.43458 84.8234 3.74266 86.3416 0.494751C86.4224 0.716199 86.5291 2.01878 86.8679 3.22684C87.1525 4.24317 87.5285 4.93992 87.7198 5.99405C88.0244 7.67291 87.8873 9.96124 85.8618 11.6833Z" fill="url(#paint45_linear_0_5)"/>
<path d="M178.34 16.9092L178.202 16.8447C178.132 16.8447 178.132 16.8447 178.34 16.9092ZM185.607 20.3941C184.776 17.2964 181.178 15.9412 178.132 15.3604C174.672 14.7151 170.935 14.9087 167.475 15.2959C159.585 16.0703 151.903 18.458 144.774 21.6202C138.684 24.2661 132.871 27.6218 127.541 31.4293C127.195 31.6875 127.195 32.0102 127.472 32.3328C127.888 32.7845 128.441 32.8491 128.926 32.8491H129.064C129.202 32.8491 129.341 32.8491 129.479 32.9136H129.687L130.102 33.0427C130.172 33.1072 130.31 33.1072 130.31 33.1717L130.725 33.3653C130.794 33.3653 130.794 33.3653 130.794 33.3653L130.864 33.4298L131.279 33.7525C131.348 33.7525 131.486 33.8816 131.555 33.9461L131.763 34.2042C132.04 34.4624 132.247 34.7205 132.455 34.9787C132.524 34.9787 132.524 35.0432 132.594 35.1077C132.594 35.1723 132.732 35.3659 132.663 35.1723L132.871 35.624C133.078 35.8821 133.286 36.2048 133.425 36.5275C134.116 37.8827 134.462 39.1088 134.739 40.5931C135.016 42.1419 135.085 43.7552 134.947 45.3041C134.739 48.9825 133.355 52.5319 131.832 55.8876C131.002 57.6946 130.102 59.5015 129.202 61.2439L126.78 66.2775C126.226 67.3746 125.257 68.6653 125.465 69.956C125.465 70.0206 125.465 70.0205 125.465 70.0851C125.465 70.1496 125.534 70.2141 125.534 70.2786C125.811 71.053 127.818 71.3757 127.818 70.3432C127.888 69.8915 128.026 69.5043 128.165 69.1171C128.303 68.6653 128.51 68.149 128.718 67.6973L130.172 64.9869C131.141 63.2445 132.247 61.502 133.425 59.8241C135.708 56.3393 138.061 52.9191 140.483 49.5633C140.829 49.047 141.176 48.5953 141.521 48.1436L142.006 48.0145L143.044 47.8209C143.736 47.6918 144.497 47.4337 145.12 47.2401C146.643 46.8529 148.166 46.4011 149.619 45.9494C152.872 44.9168 156.055 43.8198 159.238 42.5937C162.423 41.3675 165.536 40.0768 168.651 38.5925C171.212 37.3665 173.841 36.0758 176.195 34.4624C178.617 32.8491 180.831 30.9131 182.631 28.7189C184.569 26.4602 186.368 23.4271 185.607 20.3941ZM182.977 23.6852C182.493 25.105 181.662 26.3957 180.624 27.5573C179.655 28.7834 178.479 29.945 177.302 30.9776L176.54 31.6229C175.572 32.4619 174.949 32.7845 174.395 33.1717C173.288 33.9461 172.111 34.5914 170.935 35.3013C165.191 38.4635 159.031 40.8512 152.872 42.9809C150.588 43.7552 148.234 44.5296 145.951 45.2395L143.044 46.0139C146.92 40.8512 151.003 35.8821 154.879 30.7194L155.64 29.6869C156.262 28.8479 154.117 28.009 153.564 28.7189C149.204 34.4624 144.706 40.0768 140.414 45.8203C138.961 47.8209 137.439 49.8214 136.054 51.822C136.193 51.4348 136.261 51.1121 136.4 50.7249C137.369 47.4337 137.646 44.0134 137.023 40.6576C136.538 37.8827 135.362 35.0432 133.078 33.0427C132.386 32.4619 131.555 32.0102 130.725 31.6875C136.538 27.6864 142.767 24.2661 149.342 21.6848C156.401 18.8452 164.014 16.9092 171.627 16.5221C172.526 16.5221 173.427 16.4575 174.326 16.4575C174.465 16.4575 174.533 16.4575 174.672 16.5221H175.295C175.711 16.5221 176.125 16.5866 176.54 16.6511C176.956 16.6511 177.371 16.7156 177.718 16.7802L178.202 16.8447C178.27 16.8447 178.34 16.9092 178.409 16.9092C178.479 16.9092 178.617 16.9737 178.755 16.9737C179.101 17.0383 179.448 17.1673 179.863 17.2964L180.347 17.49C180.07 17.3609 180.347 17.4254 180.416 17.49C180.486 17.49 180.624 17.5545 180.693 17.6191L181.178 17.8127C181.247 17.8772 181.316 17.9417 181.385 17.9417C181.662 18.0708 181.178 17.8127 181.455 17.9417C181.732 18.1353 182.008 18.3289 182.285 18.5871C182.354 18.6516 182.424 18.7161 182.424 18.7807C182.561 18.8452 182.631 18.9743 182.769 19.1034C182.908 19.297 182.631 18.9743 182.769 19.1679L182.908 19.3615L183.115 19.8132C183.185 20.0714 183.323 20.3295 183.323 20.6522C183.392 20.9749 183.392 21.3621 183.392 21.6848C183.392 22.33 183.254 23.0399 182.977 23.6852ZM130.794 33.3653C130.725 33.3653 130.725 33.3653 130.725 33.3653C130.517 33.2362 130.725 33.3653 130.794 33.3653ZM130.172 33.1072L130.102 33.0427C130.033 33.0427 129.895 32.9781 130.172 33.1072ZM129.479 32.9136C129.618 32.9136 129.825 32.9781 129.479 32.9136V32.9136Z" fill="url(#paint46_linear_0_5)"/>
<path d="M174.034 42.5291C173.342 43.0453 172.65 44.336 172.166 45.4331L170.712 47.8854L170.296 48.6598C169.674 49.7569 169.535 49.8859 168.221 51.7575L167.39 52.9191C167.252 53.1772 167.667 53.7579 168.013 53.887C168.289 53.9515 169.12 54.1451 169.259 53.887C169.328 53.8225 169.397 53.6934 169.467 53.5644C169.951 52.9191 170.089 52.7255 170.435 52.1447L172.027 50.4668L173.619 49.1115L175.349 47.5628L176.595 46.6593L178.256 45.7558L179.017 45.3041L180.332 44.5942L181.024 44.2715C181.647 43.9488 182.339 43.6261 183.1 43.3035L183.723 43.1099C183.861 43.0453 183.861 43.0454 183.931 43.0454C184.623 42.8518 184.9 42.8518 185.038 42.8518C185.592 43.0453 186.63 43.2389 186.907 42.7227C187.114 41.8838 186.284 41.4966 185.661 41.3675C185.523 41.303 185.038 41.303 184.623 41.303C184.138 41.3675 184.069 41.3675 184.069 41.3675C183.1 41.4966 182.062 41.8193 181.093 42.2065L180.471 42.4646L180.055 42.6582C177.84 43.7552 175.833 45.0459 174.034 46.2075C174.657 45.3041 176.11 42.9163 175.556 42.7873C175.418 42.7227 175.349 42.6582 175.349 42.6582C174.934 42.5292 174.38 42.4001 174.034 42.5291Z" fill="url(#paint47_linear_0_5)"/>
<path d="M186.583 48.6598C187.759 48.2726 189.005 47.5628 189.973 46.9174C191.012 46.2075 191.911 45.4331 192.604 44.5296C193.296 43.6261 193.918 42.3355 192.811 41.4966C191.496 40.5931 189.696 41.2385 188.59 41.8838C187.274 42.5937 186.098 43.4971 185.198 44.336C184.16 45.2395 183.053 46.4657 182.292 47.5628C181.668 48.5307 180.976 49.8859 181.253 51.0476C181.668 52.2737 182.983 52.9836 184.299 53.1127C185.405 53.1772 186.583 53.0481 187.621 52.79C189.558 52.3383 191.842 51.3057 193.642 50.4022C196.271 49.1115 198.625 47.6273 200.632 46.3366L202.846 44.9168L203.123 44.7232L204.023 44.0779C204.092 44.0134 204.23 43.8843 204.23 43.8843L204.369 43.6907C204.438 43.4971 204.438 43.4325 204.369 43.239L204.162 43.0454C203.953 42.9164 204.092 42.9163 203.746 42.8518C203.746 42.8518 203.469 42.7873 203.538 42.7873H203.469C203.261 42.7873 203.123 42.7873 202.984 42.8518C202.5 42.9809 202.016 43.3035 201.67 43.4971C200.977 44.0134 200.009 44.5296 199.247 45.0459C195.51 47.4337 192.396 49.3051 189.005 50.7249C187.551 51.3057 186.375 51.6929 184.713 51.822H184.091C183.952 51.822 183.814 51.7575 183.675 51.6929C183.191 51.3057 183.26 50.854 183.26 50.4022L183.33 50.1441C183.33 50.0795 183.399 50.015 183.399 49.9505C183.399 49.8859 183.398 49.8214 183.468 49.7569C183.537 49.4342 183.675 49.1761 183.814 48.9179C183.884 48.8534 183.884 48.8534 183.952 48.7888C184.783 49.1115 185.891 48.9824 186.583 48.6598ZM184.645 47.6918L184.99 47.2401C185.891 46.143 186.997 45.175 188.105 44.2715C188.105 44.2715 188.382 44.0779 188.451 44.0134C188.797 43.7552 189.074 43.4971 189.489 43.239C190.181 42.7873 190.804 42.4646 191.426 42.3355C191.496 42.7873 191.219 43.239 191.219 43.239C188.935 46.4657 184.368 48.0791 184.645 47.6918Z" fill="url(#paint48_linear_0_5)"/>
<path d="M229.118 42.8518L227.388 43.9488L224.688 45.6913C222.543 47.111 220.329 48.4017 218.045 49.6278C217.007 50.1441 216.107 50.5958 215.069 51.0476C214.446 51.3057 213.823 51.5638 213.2 51.5638V51.3702C213.131 51.5638 213.2 51.3057 213.2 51.2412C213.2 51.1766 213.269 51.0476 213.269 50.983L213.477 50.3377C213.616 49.8859 213.893 49.4342 214.1 48.9824C214.723 47.7564 215.415 46.5302 216.107 45.3041C216.522 44.4006 217.146 43.368 217.146 42.3355C217.076 41.8838 216.384 41.6257 215.968 41.5611C213.616 41.303 211.747 43.368 210.363 44.8523C209.67 45.5622 208.909 46.3366 208.287 47.111C208.909 45.9494 209.602 44.7232 209.394 43.368C209.325 42.6582 208.148 42.4001 207.595 42.6582C206.556 43.1745 205.588 43.8197 204.687 44.5296C204.203 44.8523 203.719 45.2395 203.304 45.6267C203.581 45.175 205.034 42.7873 205.518 42.4646C205.726 42.4646 205.933 42.3355 205.933 42.0774C205.933 41.4966 205.588 41.0448 205.034 40.9158C204.826 40.8512 204.272 40.7867 204.135 41.0448C201.435 44.9168 198.666 48.8534 196.798 53.1127C196.521 53.8871 198.39 54.4678 198.805 53.887C200.12 51.822 201.712 49.9505 203.442 48.2081C204.549 47.111 205.726 46.0139 206.971 45.1105C206.764 45.6267 206.417 46.2075 206.142 46.7238C205.449 47.95 204.757 49.2406 204.896 50.5958C204.964 51.2412 206.21 51.6929 206.764 51.3057C208.771 49.8214 210.294 47.8854 211.954 46.0785L213.2 44.7232L213.823 44.207C213.893 44.1424 213.961 44.0134 214.1 43.9488C214.169 43.8843 214.238 43.8197 214.238 43.8197C214.446 43.6261 214.169 43.8843 214.377 43.7552C214.446 43.6907 214.446 43.6261 214.238 44.207C213.754 45.2395 213.2 46.2075 212.647 47.1756C212.162 48.1436 211.609 49.047 211.332 50.015C211.055 50.7249 210.916 51.6284 211.47 52.2092C212.162 53.0482 213.2 53.0482 214.169 52.8545C215.139 52.7255 216.245 52.3383 217.076 51.9511C219.429 50.983 221.575 49.6923 223.72 48.4662L228.011 45.7558C228.495 45.3686 229.049 45.0459 229.603 44.6587L230.157 44.2715C230.433 44.0134 230.572 43.9488 230.641 43.8843C231.194 43.239 230.018 42.1419 229.118 42.8518Z" fill="url(#paint49_linear_0_5)"/>
<path d="M232.289 42.5936C232.358 42.0773 232.081 41.7546 231.874 41.6256H231.942C231.597 41.432 231.112 41.432 230.836 41.561L229.59 42.4L228.552 43.3035C227.928 43.8197 227.375 44.465 226.891 45.0458C225.921 46.2074 224.952 47.6917 224.123 49.176C223.707 49.8213 223.361 50.6603 223.154 51.3701C223.015 51.8219 223.015 52.4027 223.222 52.8544C224.468 55.1131 228.759 53.3707 230.351 52.7254C231.25 52.4027 232.496 51.8219 233.327 51.4347C236.372 49.9504 238.656 48.5952 240.94 47.1755C241.148 46.9819 241.632 46.7883 243.293 45.7557C244.054 45.304 244.746 44.9167 245.162 44.465C245.784 43.8197 244.261 43.2389 243.777 43.368C242.947 43.7551 242.116 44.2069 240.871 45.0458C240.109 45.4976 239.209 45.9493 238.517 46.4656L234.503 48.7888C234.365 48.9178 234.019 49.0469 233.811 49.176C232.912 49.6922 231.874 50.2085 231.25 50.4667L229.867 51.112C228.759 51.4992 227.652 52.0155 226.544 52.2736L225.714 52.4672C225.506 52.5318 225.299 52.5318 225.229 52.3382C225.229 52.1446 225.299 51.8864 225.368 51.6283C225.576 50.8539 225.991 50.0794 226.407 49.3696C226.682 48.7888 227.098 48.079 227.652 47.3691C228.552 46.0784 229.659 44.9167 230.836 43.8197L231.597 43.1744L231.874 42.9808L232.289 42.5936ZM232.704 39.6895C233.534 39.8831 234.158 39.4959 234.78 39.1087L235.403 38.657L236.095 38.1407C236.441 37.8181 236.026 37.3664 235.818 37.2373C235.541 36.9791 234.711 36.721 234.296 37.0437L233.742 37.4954L233.188 37.8826L232.843 38.0762C232.773 38.1407 232.566 38.2698 232.496 38.2698C232.219 38.4634 232.012 38.657 231.942 38.8506C231.942 39.2378 232.358 39.625 232.704 39.6895Z" fill="url(#paint50_linear_0_5)"/>
<path d="M268.947 42.7872C268.462 42.5291 267.84 42.4645 267.424 42.8517C265.002 45.0459 262.51 46.9174 259.742 48.7243C258.496 49.5633 257.181 50.2731 255.798 50.9185C255.105 51.2412 254.552 51.4993 253.721 51.6929L253.237 51.822C252.337 52.0801 251.852 51.6929 251.852 50.854V50.5313C251.921 50.2086 251.991 49.8859 252.06 49.5633C252.198 49.047 252.475 48.4662 252.683 47.9499C253.167 46.982 253.721 46.0785 254.482 45.175C254.759 44.7878 255.036 44.4006 255.382 44.0779L255.798 43.6907C255.59 43.9488 256.005 43.5616 256.005 43.5616C256.074 43.4971 256.143 43.368 256.143 43.3035C256.282 43.0453 256.143 43.3035 256.143 43.2389C256.697 42.4 255.036 41.8192 254.344 42.2064C253.79 42.529 253.237 42.9808 252.752 43.4325C251.991 44.0134 251.299 44.7232 250.606 45.3686C248.876 46.9174 247.146 48.5307 245.278 50.015L244.931 50.2731C244.931 50.3377 244.862 50.3377 244.793 50.4022C244.793 50.4022 244.585 50.5313 244.724 50.4668L244.101 50.983L242.855 51.7575L241.679 52.4028C241.679 52.4028 241.609 52.4673 241.541 52.4673C241.748 52.4028 241.471 52.4673 241.402 52.5318C241.125 52.5964 241.056 52.5319 241.056 52.4673C240.987 52.4028 240.987 52.3383 240.987 52.2092C240.987 52.0801 241.056 51.8865 241.056 51.7575C241.194 51.3057 241.333 50.9185 241.541 50.4668L242.163 49.4342C242.371 49.1115 242.717 48.4016 242.786 48.3371L244.447 46.0785C244.931 45.4331 245.485 44.7878 245.97 44.0779L246.592 43.3035L246.801 42.9808L246.939 42.8517C247.008 42.8517 247.008 42.8517 247.008 42.7872C247.215 42.6581 247.353 42.4645 247.215 42.2064C247.077 41.8838 246.662 41.7547 246.247 41.6902C245.97 41.6257 245.278 41.5611 245.001 42.0128C244.931 42.0774 244.862 42.1419 244.862 42.2064L244.447 42.6581C244.17 43.0453 243.893 43.4325 243.548 43.8197C242.786 44.7878 242.094 45.7558 241.402 46.7238C240.64 47.7563 240.018 48.7888 239.464 49.8859C239.118 50.5958 238.703 51.5638 238.91 52.4028C239.118 53.3062 240.087 53.887 241.056 54.0161C241.956 54.1451 242.786 53.8225 243.548 53.4353C244.378 53.0481 245.208 52.4673 245.97 51.9511C246.939 51.2412 247.838 50.4668 248.738 49.6923C249.222 49.3051 249.637 48.9824 250.053 48.5952C249.776 49.4342 249.569 50.2731 249.707 51.1121C249.984 52.4028 251.16 53.2417 252.545 53.3062C254.136 53.4998 255.728 52.8545 257.112 52.2737C258.496 51.6929 259.812 50.9185 261.126 50.0795C263.894 48.3371 266.455 46.4012 268.877 44.2715L269.431 43.7552C269.847 43.4325 269.223 42.9163 268.947 42.7872Z" fill="url(#paint51_linear_0_5)"/>
<path d="M294.204 42.8518L292.473 43.9488L289.774 45.6913C287.629 47.111 285.414 48.4017 283.13 49.6278C282.092 50.1441 281.193 50.5958 280.154 51.0476C279.531 51.3057 278.909 51.5638 278.285 51.5638V51.3702C278.216 51.5638 278.285 51.3057 278.285 51.2412C278.285 51.1766 278.355 51.0476 278.355 50.983L278.562 50.3377C278.701 49.8859 278.977 49.4342 279.186 48.9824C279.808 47.7564 280.5 46.5302 281.193 45.3041C281.608 44.4006 282.23 43.368 282.23 42.3355C282.161 41.8838 281.469 41.6257 281.054 41.5611C278.701 41.303 276.832 43.368 275.448 44.8523C274.756 45.5622 273.994 46.3366 273.372 47.111C273.994 45.9494 274.687 44.7232 274.479 43.368C274.41 42.6582 273.233 42.4001 272.68 42.6582C271.642 43.1745 270.673 43.8197 269.773 44.5296C269.288 44.8523 268.804 45.2395 268.389 45.6267C268.666 45.175 270.119 42.7873 270.604 42.4646C270.811 42.4646 271.018 42.3355 271.018 42.0774C271.018 41.4966 270.673 41.0448 270.119 40.9158C269.912 40.8512 269.358 40.7867 269.219 41.0448C266.52 44.9168 263.752 48.8534 261.883 53.1127C261.607 53.8871 263.475 54.4678 263.891 53.887C265.205 51.822 266.797 49.9505 268.527 48.2081C269.635 47.111 270.811 46.0139 272.057 45.1105C271.849 45.6267 271.503 46.2075 271.226 46.7238C270.534 47.95 269.842 49.2406 269.98 50.5958C270.05 51.2412 271.295 51.6929 271.849 51.3057C273.856 49.8214 275.379 47.8854 277.04 46.0785L278.285 44.7232L278.909 44.207C278.977 44.1424 279.047 44.0134 279.186 43.9488C279.254 43.8843 279.324 43.8197 279.324 43.8197C279.531 43.6261 279.254 43.8843 279.462 43.7552C279.531 43.6907 279.531 43.6261 279.324 44.207C278.839 45.2395 278.285 46.2075 277.731 47.1756C277.247 48.1436 276.694 49.047 276.417 50.015C276.14 50.7249 276.001 51.6284 276.555 52.2092C277.247 53.0482 278.285 53.0482 279.254 52.8545C280.223 52.7255 281.331 52.3383 282.161 51.9511C284.514 50.983 286.66 49.6923 288.805 48.4662L293.096 45.7558C293.58 45.3686 294.134 45.0459 294.688 44.6587L295.241 44.2715C295.518 44.0134 295.657 43.9488 295.726 43.8843C296.279 43.239 295.103 42.1419 294.204 42.8518Z" fill="url(#paint52_linear_0_5)"/>
<path d="M375.2 22.33C375.2 22.4591 375.2 22.4591 375.2 22.33V22.33ZM377.346 22.2009C376.653 20.5876 374.301 20.7166 372.778 20.7812C370.978 20.9102 369.248 21.362 367.518 21.9428C363.989 23.169 360.666 24.9114 357.345 26.6537C353.676 28.6543 350.078 30.8484 346.548 33.2362C341.704 36.5274 337.067 40.1414 332.569 43.8843C332.222 43.9488 331.945 43.9488 331.599 43.9488C329.316 44.0779 327.032 44.2715 324.748 44.4651C321.495 44.7232 318.242 44.9814 314.99 45.6267C314.298 45.7558 313.536 45.8849 312.844 46.0785C312.568 46.143 311.944 46.2075 311.806 46.4656C311.39 47.0464 312.152 47.5627 312.706 47.6917C313.121 47.8208 313.744 47.8208 313.951 47.4981C315.751 47.1109 317.481 46.7883 319.211 46.5301C320.734 46.3366 322.326 46.2075 323.848 46.0785L330.7 45.4977C329.454 46.5301 328.278 47.6272 327.1 48.6598C321.426 53.8225 315.958 59.3078 310.976 65.0514C310.214 65.8258 309.591 66.6647 308.83 67.5037L307.723 68.8588C307.515 69.117 307.308 69.3751 307.031 69.6332C307.031 69.7623 306.961 69.8268 306.823 69.9559C306.684 70.0205 306.547 70.085 306.477 70.2141C306.338 70.6013 307.031 70.8594 307.308 70.9239C307.653 70.9885 308 70.7303 308.207 70.4722C308.622 70.085 309.038 69.6978 309.383 69.246C310.075 68.6007 310.699 67.8908 311.39 67.1165L314.851 63.3734C317.481 60.5985 320.18 57.8235 322.948 55.1777C326.478 51.8219 330.077 48.5307 333.814 45.3686C336.029 45.3041 338.174 45.2395 340.32 45.2395C344.402 45.175 348.348 45.0459 352.362 45.2395C352.431 45.3041 352.5 45.3686 352.5 45.3686C353.676 45.7558 354.922 45.6913 356.099 45.4977C356.445 45.4331 356.722 45.0459 356.514 44.7232C356.307 44.2715 355.822 44.0779 355.338 44.0134C351.047 43.5616 346.686 43.5616 342.327 43.6261C340.112 43.6907 337.897 43.6907 335.682 43.7552C337.689 42.2064 339.627 40.6576 341.634 39.1088C348.209 34.2042 355.199 29.6869 362.743 26.0084C364.888 24.9114 367.034 23.9434 369.318 23.2335C369.94 23.0399 370.494 22.8463 371.117 22.7172L371.947 22.5236C372.086 22.5236 372.224 22.4591 372.363 22.4591C372.432 22.4591 372.501 22.3945 372.571 22.3945C372.848 22.33 372.363 22.4591 372.709 22.3945C373.262 22.33 373.816 22.2655 374.37 22.2655H374.508C374.578 22.2655 374.647 22.2655 374.647 22.2655H375.132C375.132 22.33 375.132 22.33 375.2 22.33H375.132C375.2 22.4591 375.2 22.5236 375.2 22.6527C375.2 22.7172 375.2 22.7817 375.2 22.8463C375.2 22.9108 375.2 23.0399 375.132 23.169C375.132 23.4271 374.993 23.6852 374.923 23.9434L374.508 24.7178C374.37 25.0404 374.231 25.1695 374.024 25.4921C373.677 26.1375 373.193 26.7183 372.778 27.2991L370.217 30.7194C368.971 32.3973 367.865 34.1397 366.687 35.8175L359.144 46.4011C357.829 48.3371 356.445 50.2731 355.061 52.2091L353.815 54.0806L352.777 55.694L352.085 56.791C351.739 57.2427 351.531 57.759 351.254 58.2107C350.977 58.6625 351.324 59.0497 351.739 59.2433C352.085 59.3724 352.985 59.566 353.192 59.1788C353.469 58.727 353.815 58.4044 354.092 57.9526L354.715 56.9201L355.753 55.3713L356.999 53.4998L360.598 48.3371C363.02 44.7878 365.581 41.3029 368.072 37.7536C369.318 36.0111 370.564 34.2688 371.74 32.4618C372.571 31.2356 373.47 30.0741 374.37 28.9125C375.269 27.7508 376.169 26.5892 376.862 25.2985C377.346 24.3306 377.761 23.2335 377.346 22.2009ZM307.861 70.7303C307.93 70.7303 307.93 70.7303 307.93 70.7303C307.93 70.7303 307.861 70.7949 307.861 70.7303Z" fill="url(#paint53_linear_0_5)"/>
<path d="M392.021 42.7872C391.536 42.5291 390.913 42.4645 390.498 42.8517C388.076 45.0459 385.585 46.9174 382.816 48.7243C381.57 49.5633 380.255 50.2731 378.871 50.9185C378.179 51.2412 377.625 51.4993 376.795 51.6929L376.311 51.822C375.41 52.0801 374.926 51.6929 374.926 50.854V50.5313C374.995 50.2086 375.065 49.8859 375.133 49.5633C375.272 49.047 375.549 48.4662 375.757 47.9499C376.241 46.982 376.795 46.0785 377.556 45.175C377.833 44.7878 378.109 44.4006 378.456 44.0779L378.871 43.6907C378.663 43.9488 379.079 43.5616 379.079 43.5616C379.148 43.4971 379.217 43.368 379.217 43.3035C379.355 43.0453 379.217 43.3035 379.217 43.2389C379.771 42.4 378.109 41.8192 377.417 42.2064C376.864 42.529 376.311 42.9808 375.826 43.4325C375.065 44.0134 374.372 44.7232 373.68 45.3686C371.95 46.9174 370.22 48.5307 368.351 50.015L368.006 50.2731C368.006 50.3377 367.936 50.3377 367.867 50.4022C367.867 50.4022 367.659 50.5313 367.798 50.4668L367.175 50.983L365.929 51.7575L364.753 52.4028C364.753 52.4028 364.683 52.4673 364.614 52.4673C364.822 52.4028 364.545 52.4673 364.476 52.5318C364.199 52.5964 364.129 52.5319 364.129 52.4673C364.061 52.4028 364.061 52.3383 364.061 52.2092C364.061 52.0801 364.129 51.8865 364.129 51.7575C364.268 51.3057 364.406 50.9185 364.614 50.4668L365.237 49.4342C365.445 49.1115 365.791 48.4016 365.86 48.3371L367.521 46.0785C368.006 45.4331 368.559 44.7878 369.044 44.0779L369.666 43.3035L369.874 42.9808L370.013 42.8517C370.082 42.8517 370.082 42.8517 370.082 42.7872C370.29 42.6581 370.427 42.4645 370.29 42.2064C370.151 41.8838 369.736 41.7547 369.321 41.6902C369.044 41.6257 368.351 41.5611 368.075 42.0128C368.006 42.0774 367.936 42.1419 367.936 42.2064L367.521 42.6581C367.244 43.0453 366.967 43.4325 366.621 43.8197C365.86 44.7878 365.168 45.7558 364.476 46.7238C363.715 47.7563 363.091 48.7888 362.538 49.8859C362.192 50.5958 361.777 51.5638 361.984 52.4028C362.192 53.3062 363.161 53.887 364.129 54.0161C365.03 54.1451 365.86 53.8225 366.621 53.4353C367.452 53.0481 368.283 52.4673 369.044 51.9511C370.013 51.2412 370.912 50.4668 371.812 49.6923C372.297 49.3051 372.712 48.9824 373.126 48.5952C372.85 49.4342 372.642 50.2731 372.781 51.1121C373.058 52.4028 374.234 53.2417 375.618 53.3062C377.21 53.4998 378.802 52.8545 380.186 52.2737C381.57 51.6929 382.885 50.9185 384.2 50.0795C386.968 48.3371 389.529 46.4012 391.951 44.2715L392.505 43.7552C392.92 43.4325 392.298 42.9163 392.021 42.7872Z" fill="url(#paint54_linear_0_5)"/>
<path d="M411.464 42.9163C411.118 42.6581 410.287 42.4 409.872 42.7227C405.027 46.272 399.56 49.6278 393.954 52.1446C392.847 52.6608 391.878 52.9835 390.909 53.2417C390.148 53.4353 388.971 53.887 388.971 52.7254C388.971 52.7254 388.971 52.7254 388.971 52.6608C389.04 51.951 389.248 51.3701 389.455 50.7893C390.493 47.9499 392.016 45.304 393.469 42.6581C394.715 40.5285 396.1 38.3344 397.345 36.2047H403.297C403.436 36.2047 403.574 36.2047 403.713 36.2047C403.713 36.3983 403.781 36.5274 403.92 36.6565C404.266 37.0437 404.889 37.1727 405.443 37.1082C406.689 36.9146 407.795 36.5274 408.972 36.3338C409.388 36.2693 409.595 35.882 409.457 35.5594C409.249 35.1722 408.696 34.914 408.28 34.8495C406.48 34.6559 404.612 34.7204 402.813 34.7204C401.29 34.7204 399.767 34.6559 398.314 34.6559C398.314 34.6559 398.384 34.5913 398.384 34.5268C398.798 33.946 399.145 33.3653 399.49 32.7199L399.906 31.9455C400.114 31.6228 400.46 31.2356 400.668 30.8484C401.706 29.3641 402.675 27.7508 403.92 26.3311C404.058 26.0729 404.058 25.8148 403.851 25.6212C403.643 25.363 403.227 25.234 402.813 25.234C402.398 25.2985 402.19 25.363 401.982 25.6212L401.497 26.1375L400.529 27.2991L398.868 29.6223C398.384 30.3321 397.899 31.042 397.483 31.7519L397.068 32.4618C396.861 32.7845 396.653 33.1071 396.514 33.4298C396.238 33.8815 395.961 34.2687 395.753 34.6559C394.854 34.7204 393.954 34.7204 393.054 34.7204H381.219C366.894 34.8495 365.717 34.8495 364.61 34.8495C362.326 34.8495 360.112 34.8495 357.897 34.914H357.689C357.689 34.914 357.689 34.914 357.62 34.914C357.689 34.914 357.689 34.914 357.758 34.914C357.551 34.914 357.274 34.914 357.136 35.0431C356.997 35.1722 356.789 35.3658 356.859 35.5594C357.136 36.5274 358.312 36.4629 359.143 36.3983H361.565C364.471 36.3983 367.309 36.3338 370.147 36.3338C373.953 36.3338 377.759 36.2693 381.566 36.2693C385.51 36.2047 389.455 36.2047 393.469 36.2047H394.784C393.608 38.0117 392.5 39.8186 391.462 41.6901C389.871 44.336 388.348 46.9819 387.31 49.8214C386.964 50.7248 386.549 51.7574 386.618 52.7254C386.688 53.5643 387.241 54.2097 388.002 54.5969C389.801 55.5003 392.155 54.7905 393.954 54.1451C396.653 53.1126 399.145 51.7574 401.636 50.3376C403.436 49.3051 405.097 48.3371 406.757 47.24C408.349 46.1429 410.287 45.0458 411.74 43.8197C412.086 43.5616 411.74 43.1099 411.464 42.9163Z" fill="url(#paint55_linear_0_5)"/>
<path d="M426.021 42.2709C425.468 42.6581 424.844 42.9163 424.222 43.2389L422.145 44.1424C420.553 44.7232 418.962 45.2395 417.301 45.5622H417.162V45.4977C417.577 44.5296 417.854 43.4971 417.162 42.5936C416.609 41.8192 415.502 41.561 414.601 42.0128C414.048 42.3354 413.563 42.9163 413.356 43.4971C413.148 43.8843 413.148 44.4006 413.148 44.7878C413.148 45.3686 413.287 45.9494 413.702 46.4011C413.772 46.4656 413.84 46.5302 413.91 46.5947C413.772 46.7883 413.563 46.9819 413.356 47.24C412.664 48.1435 411.833 48.9824 411.072 49.8214C410.172 50.6604 409.411 51.3702 408.303 51.8865L407.958 52.08C408.165 51.951 407.819 52.1446 407.751 52.1446C407.612 52.1446 407.542 52.2091 407.404 52.2091C407.197 52.2091 406.85 52.2091 406.85 51.8865V51.3702C406.85 51.0476 406.989 50.7249 407.058 50.4668C407.474 48.9824 408.373 47.6272 409.342 46.4656C410.31 45.3041 411.349 44.2715 412.526 43.368C413.148 43.368 413.425 42.6581 412.871 42.2709C412.526 42.0128 411.903 41.8837 411.488 42.0773C409.826 42.9808 408.442 44.2715 407.266 45.6913C406.228 47.0464 405.259 48.5952 404.843 50.2731C404.705 50.7894 404.636 51.3702 404.775 51.8865C404.913 52.5318 405.328 52.9835 405.881 53.3062C407.058 53.9515 408.442 53.6934 409.619 53.2417C410.864 52.7899 411.903 51.8865 412.802 50.983C413.563 50.2086 414.256 49.4342 414.948 48.5952C415.363 48.1435 415.709 47.6917 416.055 47.24C416.885 47.1755 417.786 46.9819 418.408 46.9173C420.069 46.5947 421.661 46.0785 423.184 45.4977C424.706 44.9168 426.229 44.2715 427.475 43.3035C428.305 42.6581 426.644 41.8837 426.021 42.2709ZM415.363 42.9808C415.363 42.9808 415.363 42.9808 415.294 42.9808H415.363Z" fill="url(#paint56_linear_0_5)"/>
<path d="M479.118 26.9764C478.772 27.1055 478.495 27.3636 478.703 27.7508C478.91 28.2026 479.672 28.5253 480.225 28.4607C481.125 28.3317 481.818 27.5572 482.44 26.9119C483.201 26.073 483.893 25.0405 484.586 24.137C485.139 23.169 485.693 22.2009 486.039 21.233C486.454 20.2005 486.177 18.9097 485.555 17.9417C484.793 16.9737 483.271 16.651 482.025 16.8446C480.71 16.9737 479.464 17.4254 478.218 17.8127C476.281 18.5871 474.619 19.6842 472.889 20.6522C471.09 21.6847 469.429 22.7817 467.768 23.9434C464.653 26.2021 461.747 28.7189 458.909 31.1712C457.11 32.7199 455.518 34.2688 453.996 35.8821C453.027 36.9147 452.127 37.9472 451.158 38.9797C450.051 40.1414 449.013 41.303 448.044 42.5291C445.968 45.175 444.168 48.079 442.784 51.0476C441.4 53.887 440.5 57.1783 440.569 60.2759C440.638 62.2119 441.33 64.4705 443.199 65.6322C446.659 67.6973 451.02 66.0194 454.273 64.406C458.148 62.5346 461.678 60.0177 465.138 57.4364C468.045 55.3068 470.744 53.0482 473.443 50.7249C473.166 51.1121 472.821 51.4993 472.544 51.822C467.353 57.7591 462.578 63.9543 458.287 70.4722C455.034 75.3768 452.127 80.5395 449.774 85.9603C449.497 86.412 450.259 86.7992 450.604 86.9283C451.088 87.0574 451.781 87.0574 451.989 86.5411C455.034 79.5715 459.048 72.989 463.477 66.7293C467.906 60.4049 472.889 54.4033 478.149 48.5307C478.842 47.7564 479.603 46.982 480.295 46.143C480.71 45.5622 481.264 45.0459 481.748 44.4651C482.37 43.8843 482.994 43.1744 483.686 42.5291C483.963 42.2065 484.309 41.9483 484.586 41.6902C484.724 41.5611 484.863 41.4321 485.001 41.303C485.07 41.2385 485.139 41.1739 485.208 41.1094C485.278 41.1094 485.416 40.9158 485.278 41.0448C485.416 40.9158 485.555 40.8512 485.485 40.6576C485.485 40.7222 485.485 40.7222 485.485 40.6576C485.555 40.6576 485.555 40.6576 485.555 40.6576C485.555 40.5931 485.555 40.5931 485.555 40.5286C485.623 40.5286 485.623 40.5286 485.623 40.5286C485.762 40.335 485.693 40.2059 485.555 40.0768C485.97 39.7541 485.97 39.496 485.762 39.2379C485.693 38.8507 485.208 38.5925 484.862 38.528C484.586 38.3989 484.17 38.3989 483.825 38.528C483.616 38.528 483.478 38.5925 483.271 38.6571C482.994 38.6571 482.786 38.7216 482.509 38.7861C482.232 38.8507 481.886 38.8507 481.61 38.9152C481.541 38.9152 481.471 38.9797 481.402 38.9797C481.264 38.9797 481.056 39.0443 480.849 39.0443C479.534 39.2379 478.149 39.4315 476.696 39.5605C474.274 39.7541 471.782 40.0123 469.359 40.2059C469.152 40.2059 468.944 40.2059 468.737 40.2704C468.322 40.2704 467.699 40.5931 467.976 41.1739C468.322 41.7547 469.014 41.9483 469.568 41.9483C470.537 41.9483 471.436 41.8193 472.405 41.7547C473.72 41.6902 475.035 41.5611 476.35 41.4321C478.149 41.2385 479.948 41.1094 481.679 40.8512C481.333 41.1094 480.987 41.3675 480.71 41.6257C479.187 42.8518 477.734 44.207 476.142 45.5622C473.443 47.95 470.882 50.3377 468.045 52.5319C467.076 53.2417 466.176 54.0161 465.207 54.7905C465.069 54.9196 464.93 55.0486 464.723 55.1777C464.653 55.1777 464.585 55.2422 464.515 55.3068C464.446 55.3713 464.376 55.3713 464.308 55.4358C464.031 55.7585 463.615 56.0167 463.2 56.3393C462.369 56.9847 461.608 57.501 460.709 58.1463C458.909 59.4369 457.041 60.6631 455.103 61.7602C454.203 62.2765 453.234 62.7927 452.266 63.309C451.781 63.5026 451.297 63.7607 450.813 63.9543C450.743 63.9543 450.604 63.9543 450.466 64.0189H450.397C450.397 64.0834 450.328 64.0834 450.328 64.0834C450.051 64.1479 449.912 64.277 449.635 64.3415C449.22 64.4706 448.736 64.5996 448.321 64.7287C448.113 64.7932 447.905 64.8577 447.698 64.8577C447.56 64.9223 447.49 64.9223 447.421 64.9223L447.351 64.9868C447.351 64.9868 447.351 64.9868 447.283 64.9868C446.936 65.0514 446.522 65.0514 446.106 65.0514C445.968 65.0514 445.898 65.0514 445.829 65.0514C445.691 65.0514 445.621 64.9868 445.483 64.9868C445.414 64.9868 445.137 64.9223 445.137 64.8577H445.068C444.999 64.8577 444.929 64.7932 444.929 64.7932C444.86 64.7932 444.791 64.7287 444.722 64.6641C444.583 64.5996 444.445 64.5351 444.375 64.4705C444.307 64.406 444.307 64.406 444.238 64.3415C444.238 64.277 444.168 64.2125 444.099 64.1479C444.03 64.1479 443.961 64.0188 443.961 63.9543C443.891 63.9543 443.891 63.9543 443.891 63.9543C443.614 63.6317 443.476 63.2445 443.337 62.9218C443.13 62.2765 442.992 61.5666 442.922 60.7921C442.853 60.0177 442.922 59.2433 442.992 58.469C443.199 56.9201 443.614 55.3068 444.168 53.7579C445.206 50.7894 446.936 48.0145 448.736 45.3686C449.635 44.1424 450.536 42.9163 451.574 41.8193C452.611 40.5931 453.788 39.4315 454.826 38.2053C456.418 36.592 457.871 34.9787 459.533 33.4298C460.639 32.4618 461.747 31.4293 462.923 30.5258C464.446 29.1706 465.969 27.9444 467.491 26.7184C469.014 25.4922 470.675 24.3306 472.336 23.298C473.235 22.7172 474.066 22.2009 474.966 21.7492C475.796 21.233 476.626 20.7167 477.527 20.265C478.842 19.5551 480.364 18.9743 481.818 18.5225C482.094 18.458 482.371 18.3935 482.647 18.3289C482.647 18.3289 482.855 18.3289 482.924 18.3289C482.924 18.2644 483.063 18.2644 483.132 18.2644C483.201 18.2644 483.271 18.2644 483.271 18.2644C483.34 18.2644 483.409 18.2644 483.409 18.2644C483.478 18.3289 483.478 18.3289 483.548 18.3935C483.548 18.458 483.616 18.5225 483.616 18.5225C483.616 18.5871 483.686 18.6516 483.686 18.7161L483.755 18.8452C483.755 18.9743 483.825 19.1679 483.825 19.297C483.825 19.4906 483.893 19.6842 483.893 19.8778C483.893 19.9423 483.893 20.1359 483.893 20.1359C483.825 20.265 483.825 20.3941 483.755 20.5231C483.617 20.9103 483.409 21.362 483.201 21.7492C483.132 22.0073 482.994 22.1364 482.924 22.3945C482.924 22.3945 482.856 22.3945 482.856 22.4591C482.856 22.5236 482.786 22.5881 482.717 22.6527C482.647 22.7817 482.579 22.9108 482.509 23.1044C481.886 24.0724 481.194 24.9114 480.502 25.8149C480.225 26.1376 479.948 26.4602 479.603 26.6538C479.603 26.7183 479.464 26.7829 479.464 26.7829C479.395 26.8474 479.395 26.8474 479.326 26.9119C479.257 26.9119 479.257 26.9119 479.187 26.9764C479.187 26.9764 479.187 26.9764 479.118 26.9764ZM479.395 26.9119C479.395 26.9119 479.326 26.9119 479.257 26.9764C479.326 26.9119 479.326 26.9119 479.395 26.9119Z" fill="url(#paint57_linear_0_5)"/>
<path d="M488.241 42.5291C487.549 43.0453 486.856 44.336 486.372 45.4331L484.918 47.8854L484.503 48.6598C483.88 49.7569 483.742 49.8859 482.427 51.7575L481.597 52.9191C481.458 53.1772 481.873 53.7579 482.219 53.887C482.496 53.9515 483.327 54.1451 483.465 53.887C483.535 53.8225 483.604 53.6934 483.673 53.5644C484.157 52.9191 484.296 52.7255 484.641 52.1447L486.234 50.4668L487.826 49.1115L489.556 47.5628L490.802 46.6593L492.462 45.7558L493.224 45.3041L494.539 44.5942L495.231 44.2715C495.854 43.9488 496.546 43.6261 497.307 43.3035L497.929 43.1099C498.068 43.0453 498.068 43.0454 498.137 43.0454C498.83 42.8518 499.107 42.8518 499.245 42.8518C499.799 43.0453 500.837 43.2389 501.113 42.7227C501.321 41.8838 500.49 41.4966 499.868 41.3675C499.729 41.303 499.245 41.303 498.83 41.303C498.345 41.3675 498.276 41.3675 498.276 41.3675C497.307 41.4966 496.269 41.8193 495.3 42.2065L494.677 42.4646L494.262 42.6582C492.047 43.7552 490.04 45.0459 488.241 46.2075C488.864 45.3041 490.317 42.9163 489.763 42.7873C489.624 42.7227 489.556 42.6582 489.556 42.6582C489.14 42.5292 488.587 42.4001 488.241 42.5291Z" fill="url(#paint58_linear_0_5)"/>
<path d="M517.329 42.2709C516.775 42.6581 516.153 42.9163 515.53 43.2389L513.454 44.1424C511.862 44.7232 510.27 45.2395 508.609 45.5622H508.471V45.4977C508.886 44.5296 509.163 43.4971 508.471 42.5936C507.917 41.8192 506.81 41.561 505.91 42.0128C505.357 42.3354 504.872 42.9163 504.665 43.4971C504.457 43.8843 504.457 44.4006 504.457 44.7878C504.457 45.3686 504.595 45.9494 505.01 46.4011C505.08 46.4656 505.149 46.5302 505.219 46.5947C505.08 46.7883 504.872 46.9819 504.665 47.24C503.973 48.1435 503.142 48.9824 502.381 49.8214C501.481 50.6604 500.72 51.3702 499.612 51.8865L499.266 52.08C499.474 51.951 499.128 52.1446 499.058 52.1446C498.92 52.1446 498.851 52.2091 498.713 52.2091C498.505 52.2091 498.159 52.2091 498.159 51.8865V51.3702C498.159 51.0476 498.297 50.7249 498.367 50.4668C498.782 48.9824 499.682 47.6272 500.651 46.4656C501.619 45.3041 502.658 44.2715 503.834 43.368C504.457 43.368 504.734 42.6581 504.18 42.2709C503.834 42.0128 503.212 41.8837 502.796 42.0773C501.135 42.9808 499.75 44.2715 498.574 45.6913C497.536 47.0464 496.567 48.5952 496.152 50.2731C496.013 50.7894 495.945 51.3702 496.083 51.8865C496.222 52.5318 496.637 52.9835 497.19 53.3062C498.367 53.9515 499.75 53.6934 500.928 53.2417C502.173 52.7899 503.212 51.8865 504.111 50.983C504.872 50.2086 505.564 49.4342 506.256 48.5952C506.672 48.1435 507.017 47.6917 507.364 47.24C508.194 47.1755 509.094 46.9819 509.717 46.9173C511.378 46.5947 512.97 46.0785 514.492 45.4977C516.014 44.9168 517.537 44.2715 518.783 43.3035C519.613 42.6581 517.953 41.8837 517.329 42.2709ZM506.672 42.9808C506.672 42.9808 506.672 42.9808 506.602 42.9808H506.672Z" fill="url(#paint59_linear_0_5)"/>
<path d="M541.115 42.7872C540.631 42.5291 540.007 42.4645 539.592 42.8517C537.17 45.0459 534.679 46.9174 531.911 48.7243C530.665 49.5633 529.35 50.2731 527.965 50.9185C527.273 51.2412 526.719 51.4993 525.89 51.6929L525.405 51.822C524.505 52.0801 524.02 51.6929 524.02 50.854V50.5313C524.09 50.2086 524.159 49.8859 524.228 49.5633C524.367 49.047 524.644 48.4662 524.851 47.9499C525.336 46.982 525.89 46.0785 526.651 45.175C526.927 44.7878 527.204 44.4006 527.55 44.0779L527.965 43.6907C527.758 43.9488 528.173 43.5616 528.173 43.5616C528.242 43.4971 528.311 43.368 528.311 43.3035C528.449 43.0453 528.311 43.3035 528.311 43.2389C528.865 42.4 527.204 41.8192 526.512 42.2064C525.958 42.529 525.405 42.9808 524.921 43.4325C524.159 44.0134 523.467 44.7232 522.775 45.3686C521.045 46.9174 519.315 48.5307 517.445 50.015L517.1 50.2731C517.1 50.3377 517.03 50.3377 516.961 50.4022C516.961 50.4022 516.754 50.5313 516.893 50.4668L516.269 50.983L515.023 51.7575L513.847 52.4028C513.847 52.4028 513.778 52.4673 513.708 52.4673C513.917 52.4028 513.64 52.4673 513.57 52.5318C513.293 52.5964 513.224 52.5319 513.224 52.4673C513.155 52.4028 513.155 52.3383 513.155 52.2092C513.155 52.0801 513.224 51.8865 513.224 51.7575C513.363 51.3057 513.501 50.9185 513.708 50.4668L514.332 49.4342C514.539 49.1115 514.885 48.4016 514.954 48.3371L516.616 46.0785C517.1 45.4331 517.654 44.7878 518.138 44.0779L518.761 43.3035L518.968 42.9808L519.107 42.8517C519.176 42.8517 519.176 42.8517 519.176 42.7872C519.384 42.6581 519.522 42.4645 519.384 42.2064C519.245 41.8838 518.83 41.7547 518.415 41.6902C518.138 41.6257 517.445 41.5611 517.169 42.0128C517.1 42.0774 517.031 42.1419 517.031 42.2064L516.616 42.6581C516.339 43.0453 516.062 43.4325 515.715 43.8197C514.954 44.7878 514.262 45.7558 513.57 46.7238C512.809 47.7563 512.186 48.7888 511.633 49.8859C511.286 50.5958 510.871 51.5638 511.079 52.4028C511.286 53.3062 512.255 53.887 513.224 54.0161C514.124 54.1451 514.954 53.8225 515.715 53.4353C516.546 53.0481 517.377 52.4673 518.138 51.9511C519.107 51.2412 520.006 50.4668 520.907 49.6923C521.391 49.3051 521.806 48.9824 522.221 48.5952C521.944 49.4342 521.736 50.2731 521.875 51.1121C522.152 52.4028 523.329 53.2417 524.712 53.3062C526.304 53.4998 527.897 52.8545 529.28 52.2737C530.665 51.6929 531.979 50.9185 533.294 50.0795C536.063 48.3371 538.624 46.4012 541.046 44.2715L541.599 43.7552C542.014 43.4325 541.392 42.9163 541.115 42.7872Z" fill="url(#paint60_linear_0_5)"/>
<path d="M563.465 42.9163C563.049 42.7227 562.496 42.6581 562.15 42.9808C561.527 43.5616 560.834 44.1423 560.143 44.6586L559.589 45.0458L558.827 45.6266C558.343 46.0138 557.789 46.4011 557.236 46.7237C554.883 48.4016 552.461 49.8858 549.9 51.112L548.239 51.8864C548.17 51.8864 548.031 51.951 547.962 52.0155C547.893 52.0155 547.616 52.1446 547.755 52.08C547.062 52.3382 546.301 52.5963 545.539 52.7899C545.263 52.919 544.917 52.9835 544.571 53.0481C545.263 52.4027 546.024 51.7574 546.647 51.0475C548.1 49.5632 549.623 48.0144 550.661 46.272C551.076 45.5621 551.492 44.8522 551.492 44.0778C551.492 43.1744 550.661 42.5936 549.83 42.2709C548.724 41.8837 547.27 42.0773 546.163 42.4C544.848 42.8517 543.741 43.6261 542.703 44.465C542.01 45.0458 541.318 45.6266 540.696 46.3365C541.11 44.9813 541.526 43.6261 541.595 42.2064C541.595 41.9482 541.249 41.6901 541.11 41.6256C540.765 41.4965 540.488 41.432 540.142 41.4965C540.072 41.4965 539.934 41.561 539.865 41.561C539.727 41.6256 539.588 41.6901 539.518 41.8192C539.518 41.7546 539.518 41.7546 539.518 41.7546L539.38 41.8837C539.311 41.9482 539.311 42.1418 539.38 42.2064C539.45 42.3354 539.519 42.4645 539.657 42.5291C539.38 44.0778 538.758 45.6912 538.135 47.1755C537.443 48.9179 536.612 50.6603 535.92 52.4027L535.781 52.7899L533.359 56.1456C532.183 57.759 531.075 59.3724 529.968 60.9857C529.207 62.2118 528.376 63.438 527.753 64.7287C527.061 66.0193 526.507 67.3745 526.162 68.7943C525.885 69.9559 525.747 71.311 526.3 72.4727C526.646 73.118 527.753 73.3762 528.307 72.8599C529.622 71.7628 530.521 70.3431 531.283 68.8588C532.113 67.31 532.667 65.6966 533.359 64.0833C534.674 60.792 536.128 57.5009 537.512 54.1451L539.727 51.0475C540.004 50.5957 540.349 50.144 540.696 49.6922C541.318 48.7888 542.079 47.9499 542.841 47.1109C543.256 46.6592 543.741 46.2074 544.225 45.8202C544.71 45.304 545.055 45.1103 545.678 44.7231C546.163 44.3359 546.717 44.0778 547.339 43.8197C547.408 43.7552 547.478 43.7552 547.546 43.7552C547.685 43.6907 547.823 43.6261 547.962 43.6261C548.1 43.5616 548.239 43.5616 548.377 43.5616C548.447 43.5616 548.447 43.5616 548.447 43.5616C548.516 43.4971 548.585 43.4971 548.724 43.4971C548.792 43.4971 548.862 43.4971 548.931 43.4971C549.001 43.4971 549.069 43.4971 549.069 43.4971C549.208 43.4971 549.278 43.5616 549.278 43.6261V43.8197C549.278 43.8842 549.277 44.0133 549.208 44.0778C549.139 44.4005 549.001 44.7231 548.862 45.0458L548.724 45.304C548.724 45.3685 548.654 45.3685 548.654 45.433L548.239 46.0784L547.339 47.24C546.232 48.5952 545.055 49.8213 543.809 50.9829L542.218 52.4027L541.595 52.919C541.595 52.9835 541.526 52.9835 541.526 52.9835C541.526 53.0481 541.457 53.0481 541.457 53.0481C541.387 53.1126 541.318 53.1771 541.249 53.1771C540.972 53.3707 540.903 53.5643 541.041 53.8225C541.249 54.2097 541.734 54.4033 542.149 54.4678C544.64 54.9195 547.27 54.0806 549.554 53.1126C552.184 52.08 554.745 50.5957 557.097 49.047C559.52 47.4336 561.803 45.7557 563.88 43.8197C564.226 43.4971 563.742 43.0453 563.465 42.9163ZM531.075 63.9543C530.245 65.9547 529.484 68.0844 528.238 69.9559C528.307 69.5687 528.376 69.1815 528.446 68.8588C528.861 67.4391 529.553 66.0193 530.314 64.6641C530.798 63.8252 531.283 63.0508 531.837 62.2118L531.075 63.9543Z" fill="url(#paint61_linear_0_5)"/>
</g>
<defs>
<linearGradient id="paint0_linear_0_5" x1="52.0466" y1="9.79536" x2="50.8457" y2="86.3485" gradientUnits="userSpaceOnUse">
<stop stop-color="#FDFDFD"/>
<stop offset="1" stop-color="#1B1B1B"/>
</linearGradient>
<linearGradient id="paint1_linear_0_5" x1="46.2932" y1="19.7729" x2="48.1838" y2="34.8565" gradientUnits="userSpaceOnUse">
<stop stop-color="#FDFDFD"/>
<stop offset="1" stop-color="#1B1B1B"/>
</linearGradient>
<linearGradient id="paint2_linear_0_5" x1="75.6441" y1="19.2635" x2="76.7631" y2="34.2258" gradientUnits="userSpaceOnUse">
<stop stop-color="#FDFDFD"/>
<stop offset="1" stop-color="#1B1B1B"/>
</linearGradient>
<linearGradient id="paint3_linear_0_5" x1="65.4734" y1="42.53" x2="68.5122" y2="56.7024" gradientUnits="userSpaceOnUse">
<stop stop-color="#FDFDFD"/>
<stop offset="1" stop-color="#1B1B1B"/>
</linearGradient>
<linearGradient id="paint4_linear_0_5" x1="47.2557" y1="42.53" x2="48.8743" y2="57.1751" gradientUnits="userSpaceOnUse">
<stop stop-color="#FDFDFD"/>
<stop offset="1" stop-color="#1B1B1B"/>
</linearGradient>
<linearGradient id="paint5_linear_0_5" x1="39.7213" y1="76.3847" x2="39.7213" y2="85.5362" gradientUnits="userSpaceOnUse">
<stop stop-color="#FDFDFD"/>
<stop offset="1" stop-color="#1B1B1B"/>
</linearGradient>
<linearGradient id="paint6_linear_0_5" x1="51.1245" y1="75.3166" x2="51.1245" y2="87.5407" gradientUnits="userSpaceOnUse">
<stop stop-color="#FDFDFD"/>
<stop offset="1" stop-color="#1B1B1B"/>
</linearGradient>
<linearGradient id="paint7_linear_0_5" x1="60.5686" y1="76.3826" x2="60.5686" y2="85.4964" gradientUnits="userSpaceOnUse">
<stop stop-color="#FDFDFD"/>
<stop offset="1" stop-color="#1B1B1B"/>
</linearGradient>
<linearGradient id="paint8_linear_0_5" x1="49.4944" y1="18.0882" x2="49.4944" y2="80.9856" gradientUnits="userSpaceOnUse">
<stop stop-color="#FDFDFD"/>
<stop offset="1" stop-color="#1B1B1B"/>
</linearGradient>
<linearGradient id="paint9_linear_0_5" x1="49.5094" y1="37.7922" x2="49.5094" y2="40.7956" gradientUnits="userSpaceOnUse">
<stop stop-color="#FDFDFD"/>
<stop offset="1" stop-color="#1B1B1B"/>
</linearGradient>
<linearGradient id="paint10_linear_0_5" x1="26.2004" y1="68.6729" x2="26.2004" y2="72.9219" gradientUnits="userSpaceOnUse">
<stop stop-color="#FDFDFD"/>
<stop offset="1" stop-color="#1B1B1B"/>
</linearGradient>
<linearGradient id="paint11_linear_0_5" x1="27.2477" y1="67.5828" x2="27.2477" y2="72.1394" gradientUnits="userSpaceOnUse">
<stop stop-color="#FDFDFD"/>
<stop offset="1" stop-color="#1B1B1B"/>
</linearGradient>
<linearGradient id="paint12_linear_0_5" x1="17.8982" y1="60.3995" x2="17.8982" y2="65.7896" gradientUnits="userSpaceOnUse">
<stop stop-color="#FDFDFD"/>
<stop offset="1" stop-color="#1B1B1B"/>
</linearGradient>
<linearGradient id="paint13_linear_0_5" x1="18.88" y1="59.3812" x2="18.88" y2="65.724" gradientUnits="userSpaceOnUse">
<stop stop-color="#FDFDFD"/>
<stop offset="1" stop-color="#1B1B1B"/>
</linearGradient>
<linearGradient id="paint14_linear_0_5" x1="13.4409" y1="52.643" x2="13.4409" y2="60.2525" gradientUnits="userSpaceOnUse">
<stop stop-color="#FDFDFD"/>
<stop offset="1" stop-color="#1B1B1B"/>
</linearGradient>
<linearGradient id="paint15_linear_0_5" x1="14.5171" y1="51.6947" x2="14.5171" y2="60.4727" gradientUnits="userSpaceOnUse">
<stop stop-color="#FDFDFD"/>
<stop offset="1" stop-color="#1B1B1B"/>
</linearGradient>
<linearGradient id="paint16_linear_0_5" x1="8.93316" y1="43.3809" x2="8.93316" y2="53.5376" gradientUnits="userSpaceOnUse">
<stop stop-color="#FDFDFD"/>
<stop offset="1" stop-color="#1B1B1B"/>
</linearGradient>
<linearGradient id="paint17_linear_0_5" x1="10.0783" y1="42.5567" x2="10.0783" y2="54.114" gradientUnits="userSpaceOnUse">
<stop stop-color="#FDFDFD"/>
<stop offset="1" stop-color="#1B1B1B"/>
</linearGradient>
<linearGradient id="paint18_linear_0_5" x1="5.97329" y1="33.9439" x2="5.97329" y2="45.581" gradientUnits="userSpaceOnUse">
<stop stop-color="#FDFDFD"/>
<stop offset="1" stop-color="#1B1B1B"/>
</linearGradient>
<linearGradient id="paint19_linear_0_5" x1="7.17167" y1="33.2248" x2="7.17167" y2="46.3857" gradientUnits="userSpaceOnUse">
<stop stop-color="#FDFDFD"/>
<stop offset="1" stop-color="#1B1B1B"/>
</linearGradient>
<linearGradient id="paint20_linear_0_5" x1="4.24918" y1="24.4759" x2="4.24918" y2="37.5924" gradientUnits="userSpaceOnUse">
<stop stop-color="#FDFDFD"/>
<stop offset="1" stop-color="#1B1B1B"/>
</linearGradient>
<linearGradient id="paint21_linear_0_5" x1="5.57625" y1="23.9003" x2="5.57625" y2="38.6507" gradientUnits="userSpaceOnUse">
<stop stop-color="#FDFDFD"/>
<stop offset="1" stop-color="#1B1B1B"/>
</linearGradient>
<linearGradient id="paint22_linear_0_5" x1="4.66028" y1="15.0939" x2="4.66028" y2="29.5013" gradientUnits="userSpaceOnUse">
<stop stop-color="#FDFDFD"/>
<stop offset="1" stop-color="#1B1B1B"/>
</linearGradient>
<linearGradient id="paint23_linear_0_5" x1="6.24047" y1="14.7119" x2="6.24047" y2="30.8227" gradientUnits="userSpaceOnUse">
<stop stop-color="#FDFDFD"/>
<stop offset="1" stop-color="#1B1B1B"/>
</linearGradient>
<linearGradient id="paint24_linear_0_5" x1="7.82497" y1="7.73942" x2="7.82497" y2="22.7926" gradientUnits="userSpaceOnUse">
<stop stop-color="#FDFDFD"/>
<stop offset="1" stop-color="#1B1B1B"/>
</linearGradient>
<linearGradient id="paint25_linear_0_5" x1="9.75638" y1="7.5372" x2="9.75638" y2="24.3" gradientUnits="userSpaceOnUse">
<stop stop-color="#FDFDFD"/>
<stop offset="1" stop-color="#1B1B1B"/>
</linearGradient>
<linearGradient id="paint26_linear_0_5" x1="13.8782" y1="1.08841" x2="13.8782" y2="14.6934" gradientUnits="userSpaceOnUse">
<stop stop-color="#FDFDFD"/>
<stop offset="1" stop-color="#1B1B1B"/>
</linearGradient>
<linearGradient id="paint27_linear_0_5" x1="11.8319" y1="1.49822" x2="11.8319" y2="14.0415" gradientUnits="userSpaceOnUse">
<stop stop-color="#FDFDFD"/>
<stop offset="1" stop-color="#1B1B1B"/>
</linearGradient>
<linearGradient id="paint28_linear_0_5" x1="73.8425" y1="68.6729" x2="73.8425" y2="72.9219" gradientUnits="userSpaceOnUse">
<stop stop-color="#FDFDFD"/>
<stop offset="1" stop-color="#1B1B1B"/>
</linearGradient>
<linearGradient id="paint29_linear_0_5" x1="72.9471" y1="67.5828" x2="72.9471" y2="72.1394" gradientUnits="userSpaceOnUse">
<stop stop-color="#FDFDFD"/>
<stop offset="1" stop-color="#1B1B1B"/>
</linearGradient>
<linearGradient id="paint30_linear_0_5" x1="81.8593" y1="60.3995" x2="81.8593" y2="65.7896" gradientUnits="userSpaceOnUse">
<stop stop-color="#FDFDFD"/>
<stop offset="1" stop-color="#1B1B1B"/>
</linearGradient>
<linearGradient id="paint31_linear_0_5" x1="80.9958" y1="59.3812" x2="80.9958" y2="65.724" gradientUnits="userSpaceOnUse">
<stop stop-color="#FDFDFD"/>
<stop offset="1" stop-color="#1B1B1B"/>
</linearGradient>
<linearGradient id="paint32_linear_0_5" x1="86.2294" y1="52.643" x2="86.2294" y2="60.2525" gradientUnits="userSpaceOnUse">
<stop stop-color="#FDFDFD"/>
<stop offset="1" stop-color="#1B1B1B"/>
</linearGradient>
<linearGradient id="paint33_linear_0_5" x1="85.2574" y1="51.6947" x2="85.2574" y2="60.4727" gradientUnits="userSpaceOnUse">
<stop stop-color="#FDFDFD"/>
<stop offset="1" stop-color="#1B1B1B"/>
</linearGradient>
<linearGradient id="paint34_linear_0_5" x1="90.5849" y1="43.3809" x2="90.5849" y2="53.5376" gradientUnits="userSpaceOnUse">
<stop stop-color="#FDFDFD"/>
<stop offset="1" stop-color="#1B1B1B"/>
</linearGradient>
<linearGradient id="paint35_linear_0_5" x1="89.5243" y1="42.5567" x2="89.5243" y2="54.114" gradientUnits="userSpaceOnUse">
<stop stop-color="#FDFDFD"/>
<stop offset="1" stop-color="#1B1B1B"/>
</linearGradient>
<linearGradient id="paint36_linear_0_5" x1="93.4298" y1="33.9439" x2="93.4298" y2="45.581" gradientUnits="userSpaceOnUse">
<stop stop-color="#FDFDFD"/>
<stop offset="1" stop-color="#1B1B1B"/>
</linearGradient>
<linearGradient id="paint37_linear_0_5" x1="92.2933" y1="33.2248" x2="92.2933" y2="46.3857" gradientUnits="userSpaceOnUse">
<stop stop-color="#FDFDFD"/>
<stop offset="1" stop-color="#1B1B1B"/>
</linearGradient>
<linearGradient id="paint38_linear_0_5" x1="95.014" y1="24.4759" x2="95.014" y2="37.5924" gradientUnits="userSpaceOnUse">
<stop stop-color="#FDFDFD"/>
<stop offset="1" stop-color="#1B1B1B"/>
</linearGradient>
<linearGradient id="paint39_linear_0_5" x1="93.7114" y1="23.9003" x2="93.7114" y2="38.6507" gradientUnits="userSpaceOnUse">
<stop stop-color="#FDFDFD"/>
<stop offset="1" stop-color="#1B1B1B"/>
</linearGradient>
<linearGradient id="paint40_linear_0_5" x1="94.4324" y1="15.0939" x2="94.4324" y2="29.5013" gradientUnits="userSpaceOnUse">
<stop stop-color="#FDFDFD"/>
<stop offset="1" stop-color="#1B1B1B"/>
</linearGradient>
<linearGradient id="paint41_linear_0_5" x1="92.8284" y1="14.7119" x2="92.8284" y2="30.8227" gradientUnits="userSpaceOnUse">
<stop stop-color="#FDFDFD"/>
<stop offset="1" stop-color="#1B1B1B"/>
</linearGradient>
<linearGradient id="paint42_linear_0_5" x1="91.1224" y1="7.73942" x2="91.1224" y2="22.7926" gradientUnits="userSpaceOnUse">
<stop stop-color="#FDFDFD"/>
<stop offset="1" stop-color="#1B1B1B"/>
</linearGradient>
<linearGradient id="paint43_linear_0_5" x1="89.146" y1="7.5372" x2="89.146" y2="24.3" gradientUnits="userSpaceOnUse">
<stop stop-color="#FDFDFD"/>
<stop offset="1" stop-color="#1B1B1B"/>
</linearGradient>
<linearGradient id="paint44_linear_0_5" x1="84.8826" y1="1.08841" x2="84.8826" y2="14.6934" gradientUnits="userSpaceOnUse">
<stop stop-color="#FDFDFD"/>
<stop offset="1" stop-color="#1B1B1B"/>
</linearGradient>
<linearGradient id="paint45_linear_0_5" x1="86.9224" y1="1.49822" x2="86.9224" y2="14.0415" gradientUnits="userSpaceOnUse">
<stop stop-color="#FDFDFD"/>
<stop offset="1" stop-color="#1B1B1B"/>
</linearGradient>
<linearGradient id="paint46_linear_0_5" x1="355.034" y1="22.6539" x2="353.347" y2="90.8171" gradientUnits="userSpaceOnUse">
<stop stop-color="#FDFDFD"/>
<stop offset="0.350847" stop-color="#929292"/>
<stop offset="0.616316" stop-color="#F7F7F7"/>
<stop offset="0.983681" stop-color="#242424"/>
</linearGradient>
<linearGradient id="paint47_linear_0_5" x1="355.034" y1="22.6539" x2="353.347" y2="90.8171" gradientUnits="userSpaceOnUse">
<stop stop-color="#FDFDFD"/>
<stop offset="0.350847" stop-color="#929292"/>
<stop offset="0.616316" stop-color="#F7F7F7"/>
<stop offset="0.983681" stop-color="#242424"/>
</linearGradient>
<linearGradient id="paint48_linear_0_5" x1="355.034" y1="22.6539" x2="353.347" y2="90.8171" gradientUnits="userSpaceOnUse">
<stop stop-color="#FDFDFD"/>
<stop offset="0.350847" stop-color="#929292"/>
<stop offset="0.616316" stop-color="#F7F7F7"/>
<stop offset="0.983681" stop-color="#242424"/>
</linearGradient>
<linearGradient id="paint49_linear_0_5" x1="355.034" y1="22.6539" x2="353.347" y2="90.8171" gradientUnits="userSpaceOnUse">
<stop stop-color="#FDFDFD"/>
<stop offset="0.350847" stop-color="#929292"/>
<stop offset="0.616316" stop-color="#F7F7F7"/>
<stop offset="0.983681" stop-color="#242424"/>
</linearGradient>
<linearGradient id="paint50_linear_0_5" x1="355.034" y1="22.6538" x2="353.347" y2="90.817" gradientUnits="userSpaceOnUse">
<stop stop-color="#FDFDFD"/>
<stop offset="0.350847" stop-color="#929292"/>
<stop offset="0.616316" stop-color="#F7F7F7"/>
<stop offset="0.983681" stop-color="#242424"/>
</linearGradient>
<linearGradient id="paint51_linear_0_5" x1="355.034" y1="22.6539" x2="353.347" y2="90.8171" gradientUnits="userSpaceOnUse">
<stop stop-color="#FDFDFD"/>
<stop offset="0.350847" stop-color="#929292"/>
<stop offset="0.616316" stop-color="#F7F7F7"/>
<stop offset="0.983681" stop-color="#242424"/>
</linearGradient>
<linearGradient id="paint52_linear_0_5" x1="355.034" y1="22.6539" x2="353.347" y2="90.8171" gradientUnits="userSpaceOnUse">
<stop stop-color="#FDFDFD"/>
<stop offset="0.350847" stop-color="#929292"/>
<stop offset="0.616316" stop-color="#F7F7F7"/>
<stop offset="0.983681" stop-color="#242424"/>
</linearGradient>
<linearGradient id="paint53_linear_0_5" x1="355.034" y1="22.6538" x2="353.347" y2="90.8171" gradientUnits="userSpaceOnUse">
<stop stop-color="#FDFDFD"/>
<stop offset="0.350847" stop-color="#929292"/>
<stop offset="0.616316" stop-color="#F7F7F7"/>
<stop offset="0.983681" stop-color="#242424"/>
</linearGradient>
<linearGradient id="paint54_linear_0_5" x1="355.034" y1="22.6539" x2="353.347" y2="90.8171" gradientUnits="userSpaceOnUse">
<stop stop-color="#FDFDFD"/>
<stop offset="0.350847" stop-color="#929292"/>
<stop offset="0.616316" stop-color="#F7F7F7"/>
<stop offset="0.983681" stop-color="#242424"/>
</linearGradient>
<linearGradient id="paint55_linear_0_5" x1="355.034" y1="22.6538" x2="353.347" y2="90.8171" gradientUnits="userSpaceOnUse">
<stop stop-color="#FDFDFD"/>
<stop offset="0.350847" stop-color="#929292"/>
<stop offset="0.616316" stop-color="#F7F7F7"/>
<stop offset="0.983681" stop-color="#242424"/>
</linearGradient>
<linearGradient id="paint56_linear_0_5" x1="355.034" y1="22.6538" x2="353.347" y2="90.8171" gradientUnits="userSpaceOnUse">
<stop stop-color="#FDFDFD"/>
<stop offset="0.350847" stop-color="#929292"/>
<stop offset="0.616316" stop-color="#F7F7F7"/>
<stop offset="0.983681" stop-color="#242424"/>
</linearGradient>
<linearGradient id="paint57_linear_0_5" x1="355.034" y1="22.6539" x2="353.347" y2="90.8171" gradientUnits="userSpaceOnUse">
<stop stop-color="#FDFDFD"/>
<stop offset="0.350847" stop-color="#929292"/>
<stop offset="0.616316" stop-color="#F7F7F7"/>
<stop offset="0.983681" stop-color="#242424"/>
</linearGradient>
<linearGradient id="paint58_linear_0_5" x1="355.034" y1="22.6539" x2="353.348" y2="90.8171" gradientUnits="userSpaceOnUse">
<stop stop-color="#FDFDFD"/>
<stop offset="0.350847" stop-color="#929292"/>
<stop offset="0.616316" stop-color="#F7F7F7"/>
<stop offset="0.983681" stop-color="#242424"/>
</linearGradient>
<linearGradient id="paint59_linear_0_5" x1="355.034" y1="22.6538" x2="353.347" y2="90.8171" gradientUnits="userSpaceOnUse">
<stop stop-color="#FDFDFD"/>
<stop offset="0.350847" stop-color="#929292"/>
<stop offset="0.616316" stop-color="#F7F7F7"/>
<stop offset="0.983681" stop-color="#242424"/>
</linearGradient>
<linearGradient id="paint60_linear_0_5" x1="355.034" y1="22.6539" x2="353.347" y2="90.8171" gradientUnits="userSpaceOnUse">
<stop stop-color="#FDFDFD"/>
<stop offset="0.350847" stop-color="#929292"/>
<stop offset="0.616316" stop-color="#F7F7F7"/>
<stop offset="0.983681" stop-color="#242424"/>
</linearGradient>
<linearGradient id="paint61_linear_0_5" x1="355.034" y1="22.6538" x2="353.347" y2="90.8171" gradientUnits="userSpaceOnUse">
<stop stop-color="#FDFDFD"/>
<stop offset="0.350847" stop-color="#929292"/>
<stop offset="0.616316" stop-color="#F7F7F7"/>
<stop offset="0.983681" stop-color="#242424"/>
</linearGradient>
<clipPath id="clip0_0_5">
<rect width="564" height="87" fill="white"/>
</clipPath>
</defs>
</svg>
